<mxfile host="app.diagrams.net" modified="2024-06-19T12:05:32.715Z" agent="Mozilla/5.0 (Windows NT 10.0; Win64; x64) AppleWebKit/537.36 (KHTML, like Gecko) Chrome/121.0.0.0 Safari/537.36" etag="V549bIP9K-0sZJ-VcEDZ" version="24.5.5" type="device">
  <diagram name="PÃ¡gina-1" id="TOKZuxB1gVKcbyCL9nyt">
    <mxGraphModel dx="2261" dy="772" grid="1" gridSize="10" guides="1" tooltips="1" connect="1" arrows="1" fold="1" page="1" pageScale="1" pageWidth="827" pageHeight="1169" math="0" shadow="0">
      <root>
        <mxCell id="0" />
        <mxCell id="1" parent="0" />
        <mxCell id="hPMVLZQ1c7W9wMQ6DO-q-1" value="" style="rounded=0;whiteSpace=wrap;html=1;fillColor=#d5e8d4;strokeColor=#82b366;" vertex="1" parent="1">
          <mxGeometry y="340" width="950" height="550" as="geometry" />
        </mxCell>
        <mxCell id="hPMVLZQ1c7W9wMQ6DO-q-3" value="Gerenciamento De Produtos" style="text;strokeColor=none;fillColor=none;html=1;fontSize=24;fontStyle=1;verticalAlign=middle;align=center;" vertex="1" parent="1">
          <mxGeometry x="414" y="350" width="100" height="40" as="geometry" />
        </mxCell>
        <mxCell id="hPMVLZQ1c7W9wMQ6DO-q-25" value="Produtos" style="shape=table;startSize=30;container=1;collapsible=0;childLayout=tableLayout;strokeColor=default;fontSize=16;swimlaneFillColor=none;gradientColor=none;fillColor=none;shadow=1;" vertex="1" parent="1">
          <mxGeometry y="440" width="940" height="440" as="geometry" />
        </mxCell>
        <mxCell id="hPMVLZQ1c7W9wMQ6DO-q-26" value="" style="shape=tableRow;horizontal=0;startSize=0;swimlaneHead=0;swimlaneBody=0;strokeColor=inherit;top=0;left=0;bottom=0;right=0;collapsible=0;dropTarget=0;fillColor=none;points=[[0,0.5],[1,0.5]];portConstraint=eastwest;fontSize=16;" vertex="1" parent="hPMVLZQ1c7W9wMQ6DO-q-25">
          <mxGeometry y="30" width="940" height="82" as="geometry" />
        </mxCell>
        <mxCell id="hPMVLZQ1c7W9wMQ6DO-q-27" value="A" style="shape=partialRectangle;html=1;whiteSpace=wrap;connectable=0;strokeColor=inherit;overflow=hidden;fillColor=none;top=0;left=0;bottom=0;right=0;pointerEvents=1;fontSize=16;" vertex="1" parent="hPMVLZQ1c7W9wMQ6DO-q-26">
          <mxGeometry width="312" height="82" as="geometry">
            <mxRectangle width="312" height="82" as="alternateBounds" />
          </mxGeometry>
        </mxCell>
        <mxCell id="hPMVLZQ1c7W9wMQ6DO-q-28" value="B" style="shape=partialRectangle;html=1;whiteSpace=wrap;connectable=0;strokeColor=inherit;overflow=hidden;fillColor=none;top=0;left=0;bottom=0;right=0;pointerEvents=1;fontSize=16;" vertex="1" parent="hPMVLZQ1c7W9wMQ6DO-q-26">
          <mxGeometry x="312" width="316" height="82" as="geometry">
            <mxRectangle width="316" height="82" as="alternateBounds" />
          </mxGeometry>
        </mxCell>
        <mxCell id="hPMVLZQ1c7W9wMQ6DO-q-29" value="C" style="shape=partialRectangle;html=1;whiteSpace=wrap;connectable=0;strokeColor=inherit;overflow=hidden;fillColor=none;top=0;left=0;bottom=0;right=0;pointerEvents=1;fontSize=16;" vertex="1" parent="hPMVLZQ1c7W9wMQ6DO-q-26">
          <mxGeometry x="628" width="312" height="82" as="geometry">
            <mxRectangle width="312" height="82" as="alternateBounds" />
          </mxGeometry>
        </mxCell>
        <mxCell id="hPMVLZQ1c7W9wMQ6DO-q-30" value="" style="shape=tableRow;horizontal=0;startSize=0;swimlaneHead=0;swimlaneBody=0;strokeColor=inherit;top=0;left=0;bottom=0;right=0;collapsible=0;dropTarget=0;fillColor=none;points=[[0,0.5],[1,0.5]];portConstraint=eastwest;fontSize=16;" vertex="1" parent="hPMVLZQ1c7W9wMQ6DO-q-25">
          <mxGeometry y="112" width="940" height="164" as="geometry" />
        </mxCell>
        <mxCell id="hPMVLZQ1c7W9wMQ6DO-q-31" value="D" style="shape=partialRectangle;html=1;whiteSpace=wrap;connectable=0;strokeColor=inherit;overflow=hidden;fillColor=none;top=0;left=0;bottom=0;right=0;pointerEvents=1;fontSize=16;" vertex="1" parent="hPMVLZQ1c7W9wMQ6DO-q-30">
          <mxGeometry width="312" height="164" as="geometry">
            <mxRectangle width="312" height="164" as="alternateBounds" />
          </mxGeometry>
        </mxCell>
        <mxCell id="hPMVLZQ1c7W9wMQ6DO-q-32" value="E" style="shape=partialRectangle;html=1;whiteSpace=wrap;connectable=0;strokeColor=inherit;overflow=hidden;fillColor=none;top=0;left=0;bottom=0;right=0;pointerEvents=1;fontSize=16;" vertex="1" parent="hPMVLZQ1c7W9wMQ6DO-q-30">
          <mxGeometry x="312" width="316" height="164" as="geometry">
            <mxRectangle width="316" height="164" as="alternateBounds" />
          </mxGeometry>
        </mxCell>
        <mxCell id="hPMVLZQ1c7W9wMQ6DO-q-33" value="F" style="shape=partialRectangle;html=1;whiteSpace=wrap;connectable=0;strokeColor=inherit;overflow=hidden;fillColor=none;top=0;left=0;bottom=0;right=0;pointerEvents=1;fontSize=16;" vertex="1" parent="hPMVLZQ1c7W9wMQ6DO-q-30">
          <mxGeometry x="628" width="312" height="164" as="geometry">
            <mxRectangle width="312" height="164" as="alternateBounds" />
          </mxGeometry>
        </mxCell>
        <mxCell id="hPMVLZQ1c7W9wMQ6DO-q-34" value="" style="shape=tableRow;horizontal=0;startSize=0;swimlaneHead=0;swimlaneBody=0;strokeColor=inherit;top=0;left=0;bottom=0;right=0;collapsible=0;dropTarget=0;fillColor=none;points=[[0,0.5],[1,0.5]];portConstraint=eastwest;fontSize=16;" vertex="1" parent="hPMVLZQ1c7W9wMQ6DO-q-25">
          <mxGeometry y="276" width="940" height="164" as="geometry" />
        </mxCell>
        <mxCell id="hPMVLZQ1c7W9wMQ6DO-q-35" value="G" style="shape=partialRectangle;html=1;whiteSpace=wrap;connectable=0;strokeColor=inherit;overflow=hidden;fillColor=none;top=0;left=0;bottom=0;right=0;pointerEvents=1;fontSize=16;" vertex="1" parent="hPMVLZQ1c7W9wMQ6DO-q-34">
          <mxGeometry width="312" height="164" as="geometry">
            <mxRectangle width="312" height="164" as="alternateBounds" />
          </mxGeometry>
        </mxCell>
        <mxCell id="hPMVLZQ1c7W9wMQ6DO-q-36" value="H" style="shape=partialRectangle;html=1;whiteSpace=wrap;connectable=0;strokeColor=inherit;overflow=hidden;fillColor=none;top=0;left=0;bottom=0;right=0;pointerEvents=1;fontSize=16;" vertex="1" parent="hPMVLZQ1c7W9wMQ6DO-q-34">
          <mxGeometry x="312" width="316" height="164" as="geometry">
            <mxRectangle width="316" height="164" as="alternateBounds" />
          </mxGeometry>
        </mxCell>
        <mxCell id="hPMVLZQ1c7W9wMQ6DO-q-37" value="I" style="shape=partialRectangle;html=1;whiteSpace=wrap;connectable=0;strokeColor=inherit;overflow=hidden;fillColor=none;top=0;left=0;bottom=0;right=0;pointerEvents=1;fontSize=16;" vertex="1" parent="hPMVLZQ1c7W9wMQ6DO-q-34">
          <mxGeometry x="628" width="312" height="164" as="geometry">
            <mxRectangle width="312" height="164" as="alternateBounds" />
          </mxGeometry>
        </mxCell>
        <mxCell id="hPMVLZQ1c7W9wMQ6DO-q-39" value="" style="shape=image;html=1;verticalLabelPosition=bottom;verticalAlign=top;imageAspect=1;aspect=fixed;image=data:image/jpeg,/9j/2wBDABALDA4MChAODQ4SERATGCgaGBYWGDEjJR0oOjM9PDkzODdASFxOQERXRTc4UG1RV19iZ2hnPk1xeXBkeFxlZ2P/2wBDARESEhgVGC8aGi9jQjhCY2NjY2NjY2NjY2NjY2NjY2NjY2NjY2NjY2NjY2NjY2NjY2NjY2NjY2NjY2NjY2NjY2P/wgARCALQBQADASIAAhEBAxEB/8QAGgABAAIDAQAAAAAAAAAAAAAAAAQFAgMGAf/EABgBAQEBAQEAAAAAAAAAAAAAAAABAgME/9oADAMBAAIQAxAAAAGCN+MAAAAAAAAAAAAAAAAAAAAAAAAAAAAAAAAAAAAAAAAAAAAAAAAAAAAAAAAAAAAAAAAAAAAAAAAAAAAAAAAAAAAAAAAAAAAAAAAAAAAAAAAAAAAAAAAAAAAAAAAAAAAAAAAAAAAAAAAAAAAAAAAAAAAAAAAAAAAAAAAAAAAAAAAAAAAAAAAAAAAAAAAAAAAAAAAAAAAAAAAAAAAAAAAAAAAAAAAAAAAAAAAAAAAAAAAAAAAAAAAAAAAAAAAAAAAAAAAAAAAAAAAAAAAAAAAAAAAAAAAAAAAAAAAAAAAAAAAAAAAAAAAAAAAAAAAAAAAAAAAAAAAAAAAAAAAAAAAAAAAAAAAAAAAAAAAAAAAAAAAAAAAAAAAAAAAAAAAAAAAAAAAAAAAAAAAAAAAAAAAAAAAAAAAAAAAAAAAAAAAAAAAAAAAAAAAAAAAAAAAAAAAAAAAAAAAAAAAAAAAAAAAAAAAAAAAAAAAAAAAAAAAAAAAAAAAAAAAAAAAAAAAAAAAAAAAAAAAAAAAAAAAAAAAAAAAAAAAAAAAAAAAAAAAAAAAAAAAAAAAAAAAAAAAAAAAAAAAAAAAAAAAAAAAAAAAAAAAAAAAAAAAAAAAAAAAAAAAAAAAAAAAAAAAAAAAAAAAAAAAAAAAAAAAAAAAAAAAAAAAAAAAAAAAAAAAAAAAAAAAAAAAAAAAAAAAAAAAAAAAAAAAAAAAAAAAAAAAAAAAAAAAAAAAAAAAAAAAAAAAAAAAAAAAAAAAAAAAAAAAAAAAAAAAAAAAAAAAAAAAAAAAAAAAAAAAAAAAAAAAAAAAAAAAAAAAAAAAAAAAAAAAAAAAAAAAAAAAAAAAAAAAAAAAAAAAAAAAAAAAAAAAAAAAAAAAAAAAAAAAAAAAAAAAAAAAAAAAAAAAAAAAAAAAAAAAAAAAAAAAAAAAAAAAAAAAAAAAAAAAAAAAAAAAAAAAAAAAAAAAAAAAAAAAAAAAAAAAAAAAAAAAAAAAAAAAAAAAAAAAAAAAAAAAAAAAAAAAAAAAAAAAAAAAAAAAAAAAAAAAAAAAAAAAAAAAAAAAAAAAAAAAAAAAAAAAAAAAAAAAAAAAAAAAAAAAAAAAAAAAAAAAAAAAAAAAAAAAAAAAAAAAAAAAAAAAAAAAAAAAAAAAAAAAAAAAAAAAAAAAAAAAAAAAAAAAAAAAAAAAAAAAAAAAAAAAAAAAAAAAAAAAAAAAAAAAAAAAAAAAAAAAAAAAAAAAAAAAAAAAAAAAAAAAAAAAAAAAAAAAAAAAAAAAAAAAAAAAAAAAAAAAAAAAAAAAAAAAAAAAAAAAAAAAAAAAAAAAAAAAAAAAAAAAAAAAAAAAAAAAAAAAAAAAAAAAAAAAAAAAAAAAAAAAAvJs6cs6r2XlXVl5T3qhyvvUjl/enHMe9MOZ96Qc46Pw573oPCh9vfCj9uvCnW5an20FX7ZeFeniD7M8Ivsnwj+7hqbPDH0HuPhsa/Dd7H8JPsXwmewRLhbrA5ny9oryC5AAAAT5VhnrDzj6Wp3kP0l+RfST5o9NvmAz889PHvph5t9NDf6RvJYh+TvSB5Yelas/Sq8tvSo8uPSlXfpReX3qc+6Ec750g5p0vpzDpxy/nUjlvOqHKOrHKedZ4co6vxOVX9DceC5AAAAAAAAAAAAAAAAAe+Dq6aVln0VXkdeG/zSNrUrY1jNgTJiPfAAAAAAAAAAAHp4z9jW3e26G8aG8aG8aG8aG8aNuSXoqG10TrTN7XHQ3jQ3jQ3jRvT5bXnLyinTQ3tctDeNDeNDeNDeNDeNDdjGtn5ZiAAAAAAAAAAD33EZe4DP3WXZ7qG33SN/sdEnbBumrLl7zn5oNcgAAAAAAAAAAAAAAAAANvS8rb56wovTwilXWVzRr3JaB0A590A590CKDK78KbK2xqtynYkXLdiY5Y4m7KLjE7Kt3rN99pFvPaAzfufV0Dnx0HlAL7GjHQ4wtc1LUy4ukH1qb5UYpcoUYtlTiXPlXkWSskLLVuhLlTEuULJqX7T7Es0PQWamkRYq6PVyrMS28p9paeVmouFboLnbQyS60aqiavcqBc3/vPjofOfHQOfF/jR5FxjlGm92MHJiVjpyrLHLI04ysiDjZZRU+XPpR+X/pz7oBz7oFc+6DwoF7iUi68St6TTFnStjGuIIAAAAAAAAAAAAAAAAAA98FlP57KdOj5/oq2brcfGuAAAAAAAA9PGWRrbs5Z8fC5nXmVn7cVa2zKZd5rQr4UK+EPXa1KwheVxAnVE6W8Gd7LJprLSvuqQK+bVWtz5El1pbVkuOkcXF9H2wM9tuzPAjTsciFu9gXM3CJYmTDZNaNk2nJG7T4myr6Dn7PJMaTcTqjpdGetCvlzQr4UK8wSmW2JVzN1osWjnakjN+FzrZYoAAAAAAA98GeWqwmrL3dzU7T67FeAWAAAAAAAAAAAAAAAAAAAAAS7/lbPPXRG6fJrl8r2MzXZy8U0Z+4VszjYRPzqsS59ovKv/eeHQOfF9jRi6wqCWmNaOmq411OlNjs2XnEuoljN8/gxvLJjJNGJYbbGaewI7UvZnkVdjhBZmZ4SpqpnRtVxOkxoTdlWSorIXNt7Xbc9PcoM2yHYV/lzss6qRNTqrAm/Pfta0QZsRmVEsjXtVJ0M4pEe5ySYsvrdpPb3n+lnTns52q507tdq1uq9EOLTOoXN1lRi+9oC9A58dB5Qexe4U2ZaYQMyVhryPMN+dQ8LHMqfL6XNc70HtWseAa4ggAAAAAAAAAAAAAAAAAAAAAAGVrUZTXRc50tfOtSNcDLaaEzZNV612rSr7JefyvsSn2z9cadurVU/ZT64vnP7VutcGUtjWzcpumtae1uKPHLHXHLpanLPWBrsq287mt2WM6Vka0q7jbbUly1VZ6J7Mur3Q1vaK7pVvomzdN6ai8o7jwXnNuaabntWdHhEapsM8NcLGdrxz2pm7Trhd015jntnQ3FNcyptbPK7LVtuJ9XaVct1ryxnTCDbVNzq6LnegirkQrxd0GTDm92VbGuLvGhysuNUDabdW3aQdVxsKF0A59f6ykW2pmuTNSaGeFgspZ+mbzc7Y4muAAAAAAAAAAAAAAAAAAAAAAAAAAEroOV2zp0WGjZnrhrpWuVrqrzMvVpJlizrBMky1S+zaopNhGMpFZHL7VRizjeWBUzbGJLaYUN7N83jljvhe6IMebvaKTGSfGxnm+lkxhc029NG7Subut8lTpKo88GbiuaF6nl5EYC4m46PJqTKqd669mjNm6jV2DdrVbdTN1SyI631Fs1myfWbU07dXtzZVm7TLcVO3QvS8/7qa86Xmumlzqospa7db6Ujya+LZf8AlBkWsXCSQdV5sOfX0dKlNjM47NJJW2AatNtMW+285ezcrZEpWt8I1wBAAAAAAAAAAAAAAAAAAAAAAAAAAANnR8xtm7mrsp06cxI6H0ppMitJ2un1M2saGuM8Cw2T5azdda2tMuqiFxXxskxlzdku3fX4uktWyEleYaVkqHG46Bz8yLXyNUL0Dn56WXkGtXoPaC9X1z5jofFA10HkSOtm5/Zc3vkvm5q5c/IubnzRTy9B4oFv/eevE2KTVZ0Ct2zU1QeXHQ+QsJuwc+uOgUFnNTWMRqZJqsUsKqdiU0izp7ztJXPFuK/OfFK6CHVW26rzzkRC2kmiTXQ4Us2b2RreUvLbOk8SBNiVC+aTXAAAAAAAAAAAAAAAAAAAAAAAAAAAAAAB74JMmtTV5K5k11mrnJM3Yxc5JAmy85qDAtYtzT42EW8tL22INxhSzcv3Tamuk9k3NtRW1MqxrpjNzTy/J0qLzZkUen3zXFdUvQzpS6C85FjGTpXmV533P31DOkmfUX5z86DdJIr9FnN0NnWX1xXwc8Gb2luKlvVaVcxlDtaozu6HoJrn3vmued7z9/OtBLtdESoGWpa941x6Hn7PVnrI11l4V9rWREkw7vGqZlsuNU32VN7Ms5OetN7bxrnXJgxS+1c5rS9i1i4k6MVyCAAAAAAAAAAAAAAAAAAAAAAAAAAAAAAAAAAAAN+gtjKpE10kjk8prqcaGU37osJqRKGREvNe1NstRpLzXlNeTpTaS85F5X6c9bOHVzDGxmamucWkK8rKuuKCb82a5F52lHc0zS+obMr76FvmqW/5+3sqr6HslpxrlcQJcfPSHs1tc72i6GknXTcap8VW+1pVssudkplDuKe5zvKC8WjbtN553vP3M6U3smKxfwI3SzrUWWiKtr7z8Y6KNRriyixzPvhcgAAAAAAAAAAAAAAAAAAAAAAAAAAAAAAAAAAAAAAAAAAAAOi52dN7qvqqia319tz9BeVnhYUOeuJu1yuqC6pJ0b9FsztppUNZtxzXQzWyPRbCeWCwqm9zTn5FzhUqnvK6bpJc71znUfQQp0oHQ+a5wdkjObgStNczf58x0DVdD8xvG3ia7KdKUa5dDz9tCnSLLiGLeo6Hn2/N2led7RXsXPXC3yqG60a84AAAAAAAAAAAAAAAAAAAAAAAAAAAAAAAAAAAAAAAAAAAAAAAAAFhb8wnTqodXOm4+u53lbS9HXM1ttXXllXC98YdDS2c3TeGucixwi56wxrlZ6rGinTEzvO7zxj49FdZe2NznXx7Wb5u315XG/nbypTTKi+6529P0PPTa1qpDO2FdUo6HnrZqq8mQ7iRZUvQ53zzbMuduiylztQz5UFLBQxUsqwvILAAAAAAAAAAAAAAAAAAAAAAAAAAAAAAAAAAAAAAAAAAAAAAAAAAAAG/QLWdzidOrw5ybN5wbmWVUW/rSmStd43VBeUU2zwn6xPobKtmk+BekSL5fTW+n30ip8Brl1nPyrHPem3Qrljnxrld1UjdnpVjXPoeeua/PWNI9nXOdX0qdaiz1QUuI9DpS2hRl5hcgAAAAAAAAAAAAAAAAAAAAAAAAAAAAAAAAAAAAAAAAAAAAAAAAAAAAAAAAAM8BPnUSb6py0ybtKudNXmbqd4c3qsIV5eX9ZeTpF9284uPhrgAvqHKa6HXs35781qsq/XBe19xOnMy70RZkCC1eRKLFixha15hYAAAAAAAAAAAAAAAAAAAAAAAAAAAAAAAAAAAAAAAAAAAAAAAAAAAAAAAAAAAAAAAABKnU6a6bbym+dOh9pYi56DXAAADb0XMZzfTZUeidL+DTLiXF8MBYAAAAAAAAAAAAAAAAAAAAAAAAAAAAAAAAAAAAAAAAAAAAAAAAAAAAAAAAAAAAAAAAAAAAAAAAAAAAAAAAAAAAAAAAAAAAAAAAAAAAAAAAAAAAAAAAAAAAAAAAAAAAAAAAAAAAAAAAAAAAAAAAAAAAAAAAAAAAAAAAAAAAAAAAAAAAAAAAAAAAAAAAAAAAAAAAAAAAAAAAAAAAAAAAAAAAAAAAAAAAAAAAAAAAAAAAAAAAAAAAAAAAAAAAAAAAAAAAAAAAAAAAAAAAAAAAAAAAAAAAAAAAAAAAAAAAAAAAAAAAAAAAAAAAAAAAAAAAAAAAAAAAAAAAAAAAAAAAAAAAAAAAAAAAAAAAAAAAAAAAAAAAAAAAAAAAAAAAAAAAAAAAAAAAAAAAAAAAAAAAAAAAAAAAAAAAAAAAAAAAAAAAAAAAAAAAAAAAAAAAAAAAAAAAAAAAAAAAAAAAAAAAAAAAAAAAAAAAAAAAAAAAAAAAAAAAAAAAAAAAAAAAAAAAAAAAAAAAAAAAAAAAAAAAAAAAAAAAAAAAAAAAAAAAAAAAAAAAAAAAAAAAAAAAAAAAAAAAAAAAAAAAAAAAAAAAAAAAAAAAAAAAAAAAAAAAAAAAAAAAAAAAAAAAAAAAAAAAAAAAAAAAAAAAAAAAAAAAAAAAAAAAAAAAAAAAAAAAAAAAAAAAAAAAAAAAAAAAAAAAAAAAAAAAAAAAAAAAAAAAAAAAAAAAAAAAAAAAAAAAAAAAAAAAAAAAAAAAAAAAAAAAAAAAAAAAAAAAAAAAAAAAAAAAAAAAAAAAAAAAAAAAAAAAAAAAAAAAAAAAAAAAAAAAAAAAAAAAAAAAAAAAAAAAAAAAAAAAAAAAAAAAAAAAAAAAAAAAAAAAAAAAAAAAAAAAAAAAAAAAAAAAAAAAAAAAAAAAAAAAAAAAAAAAAAAAAAAAAAAAAAAAAAAAAAAAAAAAAAAAAAAAAAAAAAAAAAAAAAAAAAAAAAAAAAAAAAAAAAAAAAAAAAAAAAAAAAAAAAAAAAAAAAAAAAAAAAAAAAAAAAAAAAAAAAAAAAAAAAAAAAAAAAAAAAAAB//xAAtEAACAgICAgECBgIDAQEAAAACAwABBBQSExARISMzICIwMTJQNGAkQEFwwP/aAAgBAQABBQL/APKternG5xKcCnAp1nOs51MnUydLJ0MnQya7Zrtms2azZqtmq2arZqsmoyajJpnNM5pnNMpplNO5p3NKaU0ppTSqaVTSGaYzTCaYTTCai5qLmoqaipqqmsqXiLjMQhn7fqrxSKViLmsqaqpqqmoqai5qLmmuaYTTCaYzSGaVTSqaVTSmlNKadzSuaRTTKaZzTOaZzUZNRk1GTVbNVs1WzWbNZs12zXbOhk6GTpZOpk6mTrOdZzgU4FOJTjc9X/XJxxoeIzjU9VPX6Pue57qe6nKpyqcxnMZ2BO0J2rncudyp3qneqbCpsKmyqbKptKm0qbaptrm2uba5uBNwJuDN0Zu1N2pu1N2bs3Zu3N25uFNwoOZAYLKyUc6/TxUeqIxCizJuFNwpuXN25uzdm7N2pu1N2puDNwZuBNwJtrm2uba5tqm0qbSpsqmyqbCpsKneqd653Lncudq52hOwJzGcxnIZyqe6nup7qe/0fU9VONTiMbjgVX8X/S/+1809jQZ3sncydzJ2snac7DnYc5lOZTkU5XPdz3f9Os7AhLkOSHBv6KR5t/anMth/03ue7nK5yKcynMp2HOw52nO1k7mTuZO9kW1pnGX7Z/TYjOQZS+Yf0fq5xKcCnUc6WTpZOlk6WTpZOlk6WTpZOlk6WTpZOlk6WTFoqVmBZTpZOlk6WTpZOlk6WTpZOlk6WTEWQm/31dLJ0snSydLJ0snSydLJ0snSydLJ0snSydLJ1HOBziU9X/SYa/Q5LOC/6dR9Z1dFWQvrZ+n6ucSnWc6mToZNds1mzVZNRk0zmnc0ppVNMZphNRc1VToTOpE449T2ip2Iqd6Zspm0ubgRT6bbcilluDN0ZuDNwZuDN0ZuDNwZujN0ZuDNwZuDNwZuDNwZujN0ZujN0ZuDNwZujNwZuDN0ZujN0ZuDNwZuDNwZuDNwZujN0ZujAyqM2upU3Am2ubKZ3pnYi57Rc44860ToTNVU1FzUCaYzSqaU07mmc1DmoyarZrtnQydTJ1nOJT1f6iQ7D+Bp7Oxn9RiNjFiytMZpjNQJqrmsmdCZ1onrHnvHnYip3pmyqba5uBN0Zu1N2btzcObbJtsm02bDZ3sicgqPJGyDkU93+lhfcy/veBxmEN4rYQ2Ny8Y6WA2ZGNgVV7swtdkohBaiZNRkNRh+AcZhVqsl1Y2tZMmq2Gsl+AQw4aGB4JRCIBZ3derJRCC12y7r1a1Ezzj/AH879L3ORTFEvWQ++feybDZtNm2ybZzcKbtzdm7U3Bm4E21TZVO9M7EXPePPWPOtE6EzWVNRc0wmmM0xi1CqZbeI/wBTV+oGWVRWQLLcNkFmc5FPd/8AVxHe5lJ4X+lhfczPveDuxxKeyof18ZAc29lW77LswfdYgezcfNj/APFwv3trKLHdbIweDPBUdoAcjnm/cwpbm+/lmJir5m7JvkrJLllLoD+5h4Y+hyV/XzL9TC+5kr5jh/t4xvv536eOrsLJbwH/AKnu5yKdhzHEqBrhVDzLuXd3f9WJWJLOmBlq/wCnxucCnUya7ZWO33VWS7wy96dzSmnU0wmouaqpqqmqqaqotILvL+XeG/4cGuvExaoF0WPR5gxX1cb7GLH/AOLhfuX8sMbtj79u8MOwx9lsf+fFwpWUPLLsuGFfywbAwGyLMuYdzI+kkPTQyC5OwvuKbwaC+F+Mf4cxQsmqqaqpqqmqqai5phNMZpTTuaZSh61mhxXrtnSycCnG/wDp4quVmVALDsz/AK7Hb1n8FTkEBcCnAp1MnQ2azZqMmmc0ymlNOpphNRc101OpFT0ipzRU70TZVNxc3Bm7N25uFAOmAxzgLYbO5k7DmL8oIr5crnK5yucr/ALldXbjjHPtsc4bVKaN42MzrPKbRlGNokYzRXfZjRmTXHzWQu19yKjn9kxmiuf+qfVLEuJdymV3JXRlZkk+tj2dhof1hfzeMwVmV+yTkVS/PK5yucrnK5yuN/xuw53Mmw2A9xFZcA3C97tzdm4M3FzaVO9E5ouekXOtFzXTc1FzTCadTSmnc0zmoyazZ0NnUycCnEotBnY1QjlN5l/YY+Rxqrq/DXUqbgzdm5c3Cm2ybTZsNncydhzlc9/ppMlkYC9es33WIyVh3FL6ll/Lx0l1eFrtl6fw1JK8DiXdadxuPaxiscmS8P4MCXcXjWxd/FqTbR8qDsNyLV4XjWwL+Lg1ytybV5VjdgagxuNa6GuRadzSuOTapVe7cq1XFIto3Xq0q7bKvVyx5pvDuXiMms2JVSRyGEwv0vc5XOw53Mmw2bTZtsm4c3bm7NwYt4sue6qZGTXr+yq7qYrvduX2Bder/T9XOplysZtysRkrDuVhjNVVTrQM5oGbKql5gQToxbkNAryWzGKySX8oNciqh9GPE5ifaJh8mPJgymHVPK6x7MiiQ5syW9dC0xs/T8eY3xj5avV4f27/AH8Yn3mDTABdk2qqqP8AnMMPZu9NR4V/h+ri/dY0Ww+zMMhIisov7md/KYX28pfuYX82/cjLsceslsDJaV8uI7gTZVc5oKdaCmsq5eGMvDl4hy8ZtS0sqcbr9XHV1hlN41ZXf9rV+rUzsDLV543KSy5WM25WGcrClYYzWVU60DOaBm0qpeYMvNl5hy8lstzLnK78UsylYrLg4cWoFQqBwtSSrxPsF/KYYez7L28wPRxDuq+1DI7Hqh8ZH+LMP72V9+Yn2YH+Ck6crHCwq/38Yn3qZwyuIiWOfYZ/ygDa8XE5VGjwZMe+OMOUBFmWXGL+5nfyi/uZ38ph/axWe6Qvrc37kb/irUTLAASJgLavDqXisqWox8e7qU1lSslsrLZKzLlZgzaVc7EFOCCmsq5eGEvCl4Zy8ZstLKnG/OKnkRnQCZWZf2yG9R1dFXUHsiUubSql5gy825eWyXktltO5yv8AFQFcHFZcHDlYyhntC5eWFS8wpeQy57IolLau690AUsS/lF+kY+2MZ6fjxKRau1GNhVrxfGR/ixR8DyFdwihhW26QiB/gpPrP37G/38Yn3sn75ZBkGFD/AJpHmx7+q6zL95o+F/4cC+/Hv4tf3M7+UX9zO/lMP7VX6tLKYDfuTjzUI0NPU0i/MMp7BlZhSssLnNDJeMopeHLxWVLWdfi93KadSsltSstkrNuVmDNpdwTUy+oLnwNZLuy/7gGEExnWyZK+xf46ArlYzLg4dysVdT6C5eUuoWZcLJZcsrvyCGHAxKqckph5k5saS+XWX8obiMYDiAYJ2F7hRjiZ5JpEHhbjXLzC9EVlcppUuC8xDyB2BEVmUW0l+BKwsis7hMIhlOKlwGEvxXxbGEy5V+rYwmXAaQVFtJcu/dz56rJqjDMuUxLYeINw8dg+aK6lZDKlZhSssLnJDJeMopeHLxWVLAq/QxVcByW9Ym0z/uwOwJZ0wXY1MhIYM4FKx2XBw7lYi6npC5eUuoWZLyWXLMi/CCjOBhzilMPMqG9h+FIJkql44jfsehVzWVNZU10zXTNdM10zXTNdU10zXTNdU11TXTNdM1lTXTNdM1lTXTNdU10zXTNdM1lTXTNdM10zXVNdM1lTXTNdM1lTXTNdM11TXVNdM10zXVNdM10zXTNdM10zWVNZU11S/gfpvF2OQeAcYQMyfRdDw4aTD8NFdQcllSsy5WUu59BkvFXcLDl4zKlgVQUMKJxaGEVALWdh/wB4thLteUJSiq/Jidw0OhLMfxCBFAxLuUpSoeUAw8lhT9/FVd2nF9RuSIRC7O8p8xA5MynWJKyBZTsWXV1fjGDm3NPziD7bml+eV83kflx/F/GJMIvnKri6BXIq+KdXFsRXJuaX5Zj/ADj+MO/amVxZMQvTc2vzeMM/RZgcWeU4t3GOBNY77tuYHosZ/G3quJyqKOxqKENjfgMhgwMsblrS2Hh3CWQfiECKAh0AGV5u6qMygGMaTL/v/fqC9gwcwoOWFwWgXi1gULEXcLDuDiHBx1hCyFhDyzuXd3+BSSZKFeOLsmzmMnneS7hUVXSgy5FE5JDGKFlNxjDxiBxU0ubPGEPoHFybEV7dm3+Xw74xpjlxdmj8TEH262f8jNH88wh/Nll7dMT7B/ymFfzlV6dAviWVXJPgC4k+u1EVjmcWkFx+TfuVfq/h6L+JivmSj1FZBLn08gHY5L/BV3UDKYMHKWcJCmQsMoOGUHECpSgHwTQGFlhULMKFkMKXd3/o9GQwcplQcyDkruUQlP3hIWULDGFiHUJRjPV+04sbkCujMjtCbaTm0kLv3eOHNuYfofGKHJuW2xteXCUp0d7pPmvpY3jDr6uZf1JX75f2JUZ9TGmEP5DZ/wAjKrkmYtcUFfIphfbb92Yt+nZ1fPhX1Ma/jzi8uqkrXGZdVMZ1kzMD0zxhn85YcWTHd2VkJ67ErG1ZNHHYtFLGxsVGUHEZcHDqDjrqVVVLKqhZK6hZkLKZcthF/qIuYMHMOoOYMF6yn7z1UMeQlhzVZyIhx1EVmUxQ4KafNnjEHippc2RHLsa2lT6LqPDgpPszC9K8YVflfft0X9zN+14xb5JOuJ19LGivqY3r8zfp4/jB/bI+9Av0eZXtPjCL4cou4MO7nFSaW4WXlcu2CXEn12o8AXEmj3IlX6tTKessU+Q4dxYcK9V4JyxhZYVCzChPYU9/6zRXUHJZUHMg5S7n7zJu+6JDmzKPgvwA8iyC60eMIPzZZ8m/tAyWDOX5DBbqLDuEkxmPXHHv5uI+9nfx8YRfmcv3lZhelzCKdf8Azc0vjxg/yyvv+L/Piioyg4ZQFAmUVFTMk7l3dzHPg3ND48Yh8luDgzxhn7HIDg2Ju6bCyVjCzIWSy5ZFf+xY5clZi/mYYehyD5t8YYeyzD5M8Krqx7v3cSPNuYXoKu6g5TBimdgdizl4q7hYZRKDB2b5QXFtjVnmF7bMUuLuP58ouTvGF9zISZtrDKDiBU5rXRnwWWUdyysphHMkeLvH3sfxjHwbmh8eFHwZlBzVMRfJjS4L/wBlxm9ZXVFR4l0Ty6k+V11Y937uJHmzML0vxhDMo+TfF/SxpTCGJewjc6lSspdzkgp0pKaq/B4tEWnUrEqrmsu76EjOSBl5Sqin028hzAMmGXhF9mOVeriC4NzB9h4wj+MkOLfFfWx/2vxinzVqXbAGgHLbyv8A2ZOTYQGCcuqKixQuHiHUUorbmH6DxhDMo+TfAfRx7+biB5OzS/L4wh/Nll7b4xq4JePYvsOpjdheMmmVXacxhugdVMR4xy4uzR+PGEXzlDxd4H6uP/7EFwbmD7DxhHMhV9w4rCg4gVBGhhGIx2Vy/wBqHIYMHMguA/DECyHhlCWYwPo4937uJHm3ML0HjCGZRcneMeuCCvkUGuRZF8EYjYeN7d8DV5X1auiq8X62WziOGXtbR4M8F9XG8JLi3NH2HjCKZI8W+B+tj0srscQri8cF3CaAQsyoWQwv9vFxhAzIGQsp+8MKMTw4STCYQTKPk7wr6ePfzcCuRZJcEeMMfbc0vZpAjZMp/vxjO4XMkCFuIXFuaPz4wy9rcPFvivq43hBcG5g+wFRlAw7i10sYbljCzIT2F/uosIYGYVQclZSrq/B4nuyx2DAH2zLLirxhj7bml7PxiDxUXtrlKpY5LuNecV8YFMEhtTHV2Y/jELi3NH83jCL8rw4uFDCg4c9fH7QshYw8y4TTL/exIhg5Z1BywuUVFPVe3o7YeKwZdXUxB4qaXJkGvZO/IjHT1i93WN37v8GM7nT1U0cb7bB4sg36LIrsx/XuDjMKJx+q+Ne7uqhZSxhZZ3CMi/8AgNXdQMlgwcsbgsEpY0U4/kLEOoQEMxB5NsfdtZSxMrMvw1djaW00eP5s0fR0NlAxTuAHFYgIwjEYeWFQ8ply7sv/AIQGQwYOZUFwHP3ggIwzoKc22l+NZ2slspgkInKqqhNAIWZUPJYU9+//AIcLjGbbIZkd/oiVje2yE5h//gif/8QAKhEAAgIBAwQBBAIDAQAAAAAAAAECERITIVEQIjFBAzAyQFBCYSBSoGD/2gAIAQMBAT8B/wCVpfGaRpGkaRpmmjTRpo00YRMImETGJjExiVAqBUDsOw7DsLgXAuBUWSjX+UYe2XAuBcC4HYdh2HYVAqBUDGJjExiYRMImCNNGmjTRpmmaRpGkaRKNfiPeOxbLLLL+tRTKZTKZTKZTJbxKZTKZTIrc+SymUymUymUyvr2WWWyNtnyP8T45eiUH6NNmmzTNP+zBcmK5MY8lQOw7C4FxHS9Ga4M/6MzUZqMyeNmbLmZyMpGcjKRlIzkajLmZyMpGcjORlIzkZyM5CmyU2majNQzM1wZLg7asuJ2HYVAxjyYx5MFyYf2aZps02abEsEP8VTZNXuvpUUxK1TMGYM02abNNjVR6SZVsl4K3sXs/ih/bv0bR/Lp4jseY7i/2JbIX20S8C8koNs02abNNmEiMOSVsr6StkpYocm/x4S9M00zGPJUDsOwyjwZLgz/o1DUZmzOReSKkRTvfpv0UWzJoqRvEqVHgtpDvpbE22XQmxysqVDvwYyHfhng3NyBjISkSm/RmzUZqMzM1wZR4Lidh2FR5NNM2gN3+TGVE1e66UYswZpswXJUTsMo8GfCLkO6I3e/SGyJKmeUSv2RezFuyT3J+LPKol4XSPgSx6LbYY0tifAn29J+T1Q9okPZGx36MpezNcFxOwxjyYGmzBlPolZJ4qvzIzo9WjUZmy30xZgVEyiZs7mUl5YnfRz4JOzZkmJ10uLJOxslK+l7UKW+57HNknbJOxuy9q6SdsbJStHxmSexi/RlJGfKOxmC9MwZTLMmZsjJslJIbv82MqMYyNMpL0ZsyfRRbMEvJkl4MmxR9sulZaqzb0jNcCkn6JSS9Ckn6HJL0Jp+jNcEml6LVXRkuCVL0KS4G0vQ2l6ItP0ZrgtVdGa4LVWZrgTv0dvgtJ0PfZjTiZ8naxwfS2Zsu/RgmaaMlHx+hyYvkZqI7GKKGpDTFFs2iLfdjeTJ8Ebsli3Qo1uM+PkYto9Pk8kd00QW55TIeRu2S+1EfJLyQ46Q4MUvI327dJbqxPLZl47Mcb3RQlIrkxijKKNQc2X+mszZqGaMYsk/RDnpDnonjEyT8mNLYcWiXhC8nyeSHkW1kPItk+j+3pNEItMaitxT3JeSHHSD9D2Yu9bnbE1EajMn+vg6ZOHBPZV0lsq6T4Iq2Se5BszT8iUfI4pvyYMmtthQZJWaZtVHaiMrG2eY9JbqxOia9iJK90fZH9optGUX5MF6JxdkFuMjsr6eI9HtGul/xIxd7l5CWO7J7qxHyeSLpk1uQ80NUyO6oxZjtTKijUXobv9tYvkYppmEX4JRdUiifAtyb3ILcSylZOXoTofeheK6PePSW6sUWOFs7Yj+Tgcm/3qmxfIVGQoUNMgtiTxVLrGVHnca3IJmmvZlFD+Qyb/8ABqTF8nJqL0N3/hGdGoh/Iy/+DP8A/8QAIBEAAgIDAQEAAwEAAAAAAAAAABEBECAhMFBAMUGgYP/aAAgBAgEBPwH+VpjGMYxjGMYx47NmzZs3zd7NmzZutm8GMYxjGMYxjH60fXHySMYxjGO91vBCEKlSpVqka4qkIQr3WzdMYxjGM/PzLsxjGP44tjGMfiyOt1u0IQhXP0zghCEIRut0/AYx1u9VNTxjhFxc4LBjH4CpCwdr41xnBUx4LwnSFb6rmqWSp2qY/DQsvzcYzhFTU4QTU9ULyEIVQTU8IJqb/dRaqckL0JIxioJFbIHT4x66pkE9IqKgnJewhYRUE1HF0he6hU6nOR0v8IhCxQhfwaf/xAA1EAACAAUDAgQGAQMEAwEAAAAAAQIRITEyEBJBIlEgYXGBAzBCUJGhYBNA4SNicMAzUoKx/9oACAEBAAY/Av8AqrVixZmLMWYswZgzBmDMGYsxMTExLfst+zg4ODgui6MkZIyRkjIyMjMzM2ZsyZky7Ls5OTk5/JZ/ksWOUdLn86bois2WLFmc/k5OTkuy7MmZMzZmzMzMzIyMkZIyRki6Lo4ODg4Lfst+zH9mJiYmJgzBmDMGYMxZizFlmWLfbpxKbLIsW+ZcuXLoujJGSMkZozRmjNGaMjIyLly7/Bz+Dk5OSzLMxZizBmDMDAwMTExRijFHVCdLNyy+ZviuTiZ0wmKMUYoxMTEwMDBmDMWYssyzOTk5OfwXf4LlzIyMjNGaM0ZozRkjJGSLoui5cuX+XYsWRRSf2lrcZGbMmZMzZm/yZP8AJkzJl2XL/aJoT7nk/lJaT4+0XLl2ZMyZk/yZv8mbMmZszZkxLdpE/P7Ptd0TV19ksWZizFmLMWYMwZgzBmDMGYMwZgzBmDJRIh2qZizBmDMGYswZgzBmLG4lKg9pizBmDMGYMwZgzBmDMGYMwZizFmLLMt9k3vk839oUWnk/mWLMxZgzExMdLoyRkjMzMmXZzpYtCfQfScF1+D/GlmSSZtaMWYsxZizFmLMWYsxZizFmLMWYsxZizFmLMWYsxZizFmLMWYsxZizFmLMWYsxZizFmLMWKHaxTVyzOT/Bf9HB9J9BaEtpz+S7MmZmZkjJF0cGJiYmDMWWfzUtJ8fadj9iURkzJl2cn+SxaE+g+g4Ln+DkszFmLMTFGKODguZGbOtzRugdi7+W/TwTRZEmtNxJEmSRKIUTszpODqXgmcEmdJb9nUtKIqtFE7MlCSYonZkoSTHLjWEh+Xdm+JvyJQOSRmzIucFkYoxRiYmLLM5P8Fy8J9B9BaEt+z/JyXZkzJnSbVd/a+pTJWZ0uTKxMyf8AbbIvY3Kz+W/TwQNORkbvqQkP4fEj0ZD8RG7sNkBGPqY4I6jWsP8ATuKboL0Iy7G47lbIlBRIlHVE1ZnoONil9RDAP0N8BHrCQ/LrZGyG/wDbXZkycbbbKnSpE39smiaN69/7OzMWYswJyJfERRqRkZmRdnOnJzpOHwQ6RbuR/EiN06i+IuRwco/3PSAj9Bm7hEUtYXCZCiiVSMk4DpxIkNMSRDCRQMUCIIuwx+g08WyNqz1hFuOTk5OTkuzJmZkXRKBE2jAxZiyz/s9zsibHE/t/kzyZRTRizFmLMTE4LoyRmZF2cli0J9J9JdfjSzMWYGBiicJJmRmzJ6OrLsuy7LvwKGNWJwwnZEMEGjgivwVsyUNlpDCroe7kxNvw1LwKGKF0MCVkRbudHB8SpOE/1VU/01UmxRE1YaZMbi7DZtjfguy7Lsuy7PYyZmzIkqk42YowMDFlnpdfg+k+ktCWOS7MjMyRdHBiYmLMWYstJEkbVZfcdsdij0qmYsxMEYo4LmRmzJl38ya0scFYjbOY9d/GsoTOpW2ie4yN09J2RSMlFpuno3O3g2ndabpyJaJC513bpH/kJpzQkZGQqzJEm9G07EmSTJabe6KRHBieZZpfMuzJmbMi5wYowMTFkknrtg/P3OjNkT9CXPzbGDMTgrGZPTg+k/wUTJwknCkXJseiR/T8hrSJq5NtzEnpSJkLTqVibEjZBQmomT50RvXuR+Fwmwkh+um7sOWr9Dk69Iet3IdraKuZD6kOkXqf1IfciIvXSa7GRJJMnEWZ/g+k+nTJlIzgsYMt83zZthdSr+6zRM3w++tmYsscFYzJlT6T6dKQspCWRkZMq3pSFnY6oijJXPLvo9N3YnxYUXfTyOo3/DtrDp7D0ejNsVyOF+Fp2Y4yNj9dKXY4YkNaT7CUhf8ArpD6kOkPqQ6RH9OIiXBF66exJaVZ0xHDKwvS5kzI4KwlYWcn0n0lC7KRlGixgyz13uw2xxP7v5E1VGKOqS9tKQspCcGRky78VIWWkdURWvqfSUmykJkcs3LpJREkPSbMCa0deoltY92sOiiFHBcltNqvoxMmvCzaRD9RIUKRWEUej9NJc6Q+pDpD6kOkRNEyL102vsShJ5I5RkVSZVNHBT9FIjuVhfiuzJmRwVhKws5KSfsYo7IksfvPSxqK5S6+RRMtIrEVqfSUmykJlL0KvWx1uZwjoRds67j0UL0cK50nCzFFbaqF2WtLGKJxabONNqt4Jom9Ht50mib02t0WmzjTpekycWkycWjS506SenTeRVtM60ce50uRafprRmRWEqmj6Sh0xFplYX8jc7spdnU/vaiRNE1RmM/QxZYrEVqfSUqdMJcq34aQnW/wcI6FMvp2Wk2pFixYsWLFixYsWLFixYsWLFixYsWLFixYsWLFixYsWLFixYt+yxYsWLFixiWOkkyaqtKRHWjhnQyq8NGy5WErQ+kpQ6Yi0ysLMScVWTZP77OE6qMo9emORluKwvxdKOpyK/s6al5ayRP4n4JQVZ/U+J7GyH3J8IShdjbFcn8P8FdfQUGs+woe2svbX/50ihPXRIkRLSFCh8MiJeeku4otXD3N3fwTj/BJX7HU7ij7m2Kx/U+Hcl8S5OC5JrW8/U6lI49joZ1LxUhZfb7nV8SetWUqyv8AAciqTKzRSJaVhRShSIq0ibr6koa+hShVz8Hl3JkoaI3RYmyG+k36sb0lFVFUUqtNz5G9XF3InpCQrV+mkJDFpPsKDyFF30cR6avSJD89EyeqZNeunZFL9xww00meumyL2N8NuSV1p3XgoVqSioTX6OlzOqIrNlIVpWJFJs6YTIq/4PRsvM6oS8ijWmJSJopJlYWSJ/E/BthqycTP9pthvwTYuyFB319BKF1JfE/JP/8ACUC8HtrPsS7LReD20cXc3eZPtpMb0fqReui8yF6+3glEjc/2SgqNRO5u76uAnw9NsVyaxZNORtjoyfwyTVSkLKyR1RGJQqy8zphOxWJ/xGkTKpMqmjLSxKcjpi/J5aTem58jeu58jeiULFM4Z0MScJLvrEyLSH1F66y7DR7ae0iRLylrERaJk+2sUI1Cjrcjgah4Gm9E+xNeuqfYmvVaTRJ35Omx1REpt61iRRNlEkZfxqjaLnVCdtHPRI2rnVIkvTVxEu2nc3RULnTEVh8EHqQ6uEXmJd9IoT9kMOsQ9fYpCdTkTJw1JKhUQotdr4GtXAx9npDLvpeZ0wl5FW/5Ejfpv7j7auLsS7az9yeiQoe5Rnc3SkS3IpQpEJtEOsLFF2JdtF5m7yH5av0Jwoq0irbJTSN1ylCrmOEfnr6rVdmKPVM3LjTdwhv+TSdmSdjpqiS9PB+xvRI299XEemvtpSJihuKdZlZo+kokc6N7jInu0m5lUj6Sg0kbVYrE9Jew1omKLtq4R+evqvBtfA+ISSNisv5PKKqKMqilDpqJRKQoe+riPTX21QodXES7azfqTgdTJm6KJy03QRP0MmboncctUKLVwnrr7apii7auA6VcrQrU6VIqyUFu/wDKrzOqEpFpN3OlzKws9ieiQoe+sUQ/LWfuN6JEl6Gx+xP6TyKYk+Cf0mxXZt7DWvtqmKLtq4R+evsSSZ1ORPnSsR0qZeXp/L6RHVCX0kzpi/JWEcQ/LX2mT0SJe2s+woewtumyH302xY6Nvkl3FFq4exEtfbVMUXYpCdTJLSsR0wlYv5rSI6lMvIppOGItP0FCS76z7Ch7az7jlyyRshv4NkXsSZXgn76y7ii1cPYaKQnVF+CWl5nSpFYv53RyK1K0KMnIvI7lUbu43pIkvQm8j/cT8O15HmbIrqg1omT9yhaRPcTkVZSp0qRV/wDANDudSkUiKo2qhSpVSJ9hPsTZN+KaPMmKLuUUytBQupRFXI6alKFXP/gi51IpFpRSJsnx8iaJo6lMoViR0qZeXp/wfSI4Op/KnC5HBWL/AKET/8QALRAAAgECBgEDAwUBAQEAAAAAAAERITEQQVFhcZGBofDxINHhMFBgscFAcMD/2gAIAQEAAT8h/wDlVYIIehD0IejNwbro+KPgD4w+DPjT4E+JPhcU7c4T2GbTs2Y2I2uxt9j2Gb3b60efrtr0S+J7YPZBDV0fCHwh8F9GEm6PcZ7zNjABuOze9jtpORBMXTMabQ6Nfqq1/rCy/sG97Nx2fMGwHtM9xm52+hKz4I+EPhDcdHJ0eyCXxNr0fDfUXya7w9hmz2NrsbQbMbQewz3Wbk3+CfGHxJ8CfGnwZ8YfAHxRuujedEPRkPQh6EMj9pWpzWuQlfaNn0bQhoiFoQtCFoRhQlErUhqiGq7Nh2bTs2fZ88fJHzh8gfLnzJ8qfN4hGxwnsI3vRuOsIbge8j3EbXT6ULC+UPlDcdkNXZ7JJfM2Pf0NX/hCYSCGpo9f1EITVZFIhC07nOP188bHsl8z2yeyTcdnyh8p9NZSbXQ9xHtI3MCG46N70ewsJscYT58+VPmT5c+SPnD5I+aNn2bTs2nZsOyGq7JWpKKFMIWhC0IWhDRG0Nl0P8UPbVtiNid1+zKwdJas0SsJZG/wz5I+bPlcdG+fPkD5o3fZvOzcZL1/ZkN/5FLbITMan6Wnd2OJ7JDU3Bfs0slqzeG67Pmj5A+fxML5U+b+gM5d3qzIQgs2/Z/GSU2/ZHedHxRP9sT/ALX6xEAAAAAAASKKHSSXNh+kQABAAE0juCutG26frEAAAAAAAE136iL7Z8Ubzoj9jlrlnBSlor9oYk8iC1VNE5Gov1JsxN9o+DPiRNzid+YtJ2J+S7FhErPLd6DcdGtgJu9yDJ9kWTsh+4fIGqOs6kIIMxHaehivqSNSXl8fs1FUQVURVVVVERFVFVERVVVVERKwiStp7BCy39BJdifINZ1NUZPyJ/uE+TsbMn2MbTB/ijcdD0egeXjTr0exsOxq/Mac41fZPgyL7RFk/wBRuS5iUGySJjIov2mlOIGY36M95m0IsnZF9wiyEWY1nUiydG+x7SHgivI7h6PWPJ7sJekHq9DY9DI2ghyto5yJYZ0O6HndxuMl6v8ASq/xipKUPcQzPJJknhaG0wJF9jVfQxVxkdqkJwOWoUue0zTXVfQkpEPca1ZvI8IhrIbtLMGxD6xvggmnq6CCae1cFchB6WMdcQiIH+Cimo9yIaEDR/VRl6ktX2RfeM9axsblcwsxLBKGx6Fq9BYZqze4Wr1mo/YiVmhqegnzYmydH4gTZibITW7CbINsaPqNHAv4sXNJV3bKh6nH7UxpThoWxzSJE9wbZUWglxLW5N9w3H/ywJqoUH/y/Uq7xi8k0Kw7o/kZMdDpQqsRWNMZFgOjJtrHSayP6Z6REIXtRjdkaRp47RtitCqsshR5FnATfW0J8ohE+tEWyxJGPkz0FA1ef/IinJoWBQQFZKcCTemrnpx3/WDX90Lzwul/ypFmyL7wsjvLjIVdiMhLeSEUc5j0yW/2xCpNCx5kRuOn/EhvI+GE+3SJxJmYXRINbkKEtVJHZBZ6i1egWe4s018o5uz3Ge4zm7GK49xk2Hlj6NCH2h5R7EJ57EE35kQ8rQV8EXaYP9PCPUGiRcW5ZOL/ACHQ9xDUEpKEwzSFNyJondoRrWjVCFNVbFJZyJ8o1I6zeTDcbbVMK+38CbZZQ74MmHqbGaHuM9xnuM9xntMeSLygej0Dy16KuUXyNDTMb3GjMNFya/sjT9oh6f8AFT/S3Yw2kZiH7fct4aguqBomyYPgBP8Atid9oTs4naPItl5EKs4Fq9As9+hZopOryZxPLPyg+VNZ0IAR2b6GjN8DyxaZeoeQneGTur/Q/vS8XG7P4G+4Nl+4dyNtuWbktT5Y+WPlj5YnF5+cLQJ254HERDkSIQr4MZpC6uKTENk4E+2YVnUFSf6lkfX6HSkNBVyfodFFDkIFyKDcsxNDSKDFOhoS+iJquGp9WShbMXXIKFIlTbzQ0jZjgITEAZseKpKj1+j5Y+WPlj5Y+WGc3LkJFu8S7AkZxIemexQ5RVY5EQCzE7Fq9Qs8FoJJeeiQGs6YL+cGQTwxt/IeSgeW/Q9HoHlk8k3o9h/MGrONX2hrv1nxAp1ZjYlKhIqj/t+4q8EegllDRA2SrNB5YtMvWPK7B6YPKh4GzJ0N2cbxbr9w237iWr/Thq2ndCxSHk9CsS85GrtDJPhYAPUYp+Kg5y9CN3QMM7WawhZqpNuTsrwVdtm6N0Rkj/cIhRTZCNid0JGiDvi1COCDbcmeFKGiRJGywYlu3BOpg8VJZh70FKzHoaNuDbmx6GKNJEWl2IKDnBERaBjEVQxqChSSbXQiHlAZJ8oSs2Gr8htbrnZVCGy/TlqxJt3CVbuEs0rOJGToWdLwLOYLMTsSZv2LPHvcFBoS2khh3y3f9zXQXA5kp5mLf4BjE6NfqJ1m6FaN8GgOWNXaeTJHhGaYK4l8szi82ZJ+A7ZvwELomdJsKD1Gsq8EuZcs9Rg9DdsQtbBznJ4LCqZlDL+hBnC9cIQmtJGVU0VQqhRuzQ3MeiojLI7CDEotk+cHTLoqlI6PArnONvg9ukxMdVmop2kj1LCTayitK4qsfUBS0XQVpaXcTh0G0NqhmVERZMZV+WEeixBaInpMERKWGgl9yFN0HU6UXFJWIV5PkZx+SMgvAdso4Zk0jcjyhOzY1Twy4dA7p+v1Ll51mPXEe7WRc18v91etkNClrfNEtLEm26iwFonljN2nkZkdGbYK2TyzQdjXJwh2Db4RmQM+6xmyRjR4Lh3Dul5wvA8F+S5M/CokZK6sfHa4ZFYVyj+9nqMJHKVnNQiG1GDGUl7odkU7obWUVjH+hhAJ1cKZrSx3Z6B/2ONgoZqKULnONng+RyUjhtVY3J8j1bByaOIgPUr1Od6YJl2kycJTmKROq+Hp56PHPRYerFvr6DdOUwRF4xNpmyNSk3dvMXlItmZ5XJbPAy0bwRFxWzLhlk7xDV4ErpzJPhjNgK8hyjPPyRoOw7J0xqyz4ARuBLXwy4A136i18KQ0W3LTSLpD/d3yO+5OSQuq3BEwmDsJfCM2OTIPY1ZKMaOC7dw23d5+q/jwXNOTPwqP9QG0cVLdB60uTS3A2Ylgq9oTGJ6jzbls9RgyKq3wLMqrfB40ITFJsixdw4WP9DDYy5cDDsqEW7M2RRh6J/2NS2zIZI0XMbfA8Qk7xu9cP1I0XkhydB1EiJLNnR4euYInZIfIjYnkenHo8c9Fh6v/AActkNCGt7PFGqbDQg9CQ+O9BLIqxV6Lcz5FfTMMhZh+VBY0cj8+i3pcGWkePqS7I8li7jUHIldP4MgvyZIcCvocoikwNqX1E5BBoK9f3lvVWw9hwqjygRaj+u87wf78zJfhFflyZOgLb4EZOXOBi7r842SK1ZVuEhoQvBcyPKxrFIySEVE8n1GEXELC0hqywpWMUdWPkp7xoWLIliU150MZoQ9R+ZLwbZqeE+l9BWvjhfeDkDctt5i6+GPr5bwTJWAzK1LCeoSNttt5jNCXQhMmMGIS6qLWRgzumBm219RjmuxFapotDx/qBCku6EMNtsKs5jRTUNRfC5i4ZrbkWtPjDogVlzQqlHDPzqLWnBlvHj9BzU/ZGqp3i+safvd5hCa/lDL82PsjUJjhMfBp/kyWuC83yZsDM/8ABDfus0/wXjcv6bhcn2EJD+y4rTlMukVosHc+U0D/AGx94MidZL3PZZ7LNh2bDs2HZsOzYdkf5mw7Nh2S5eyO/rNh2bDs9lmw7Nh2eyzYdifb1mw7Nh2bDs9lmw7Nh2bDsj/M2HZ7LNh2bDs9lmw7Nh2T/mR39ZsOzYBPt6z2GbDs2HZsOzYdmj6z2GQ5OyVNMKiJaRVZO6PhRwu1GjEOkO6KGd6iLw7MuzGq+mzrhmp+TLz4LbfJE6hmduDG6vJ/nzG8IeCwMt2MU/8AqHx8JDnPbJfvshI/0o3+YR0H5x/z2OzY5LBPqbw1lWUmiF0w5FERv6Fhh2G20ty8FpDbYjNMKaXoIu/0MuP5FWjEedTKSV6WXCQJGnoySWROlTKCOWSSzayEqjsJJIWrgedHkhLJxitM6k48qiWM1RiQaKDd4JZz5LIEs3OFL5Q5lksl2yYzQBJVTokEK2agkkmW1SIBLGSWKW4UsgKaER00sgzqlbsRBahla67PQmWlvGZkFqE9NaMmSZJ4JxahopoKM4IZUnqEKy7MfVVv9V2ngXsyD/JGNkEIo8YmT0yX8ATWNosT+RH0ws3AZUdql8HgzBwErT5GnSNqi/tBP0EMjr6j+Xcvof0UFOUJ6u7PkxNGHqVV37F3qLsDgGPbt4NFN6xma1zJB+EQeSHg9O8dxBzRTCObnPXOCuUrhhINXBNpHGEVkWSLVCDQMJtEoRJLRGDzDdiQvR4c9UnfmEL5Mp/KuLFt0xOYRDCoxuMW0TqEE6HDeY3LljEJdD8F6iNmndEkP5E1p2NCsOFm0f8AaKguX6Gss09ikUdxR6mwhgjcKugm9BqwuMSFKiWiLEvOBBqwuS5MlsXQfP8AB7QvJc05H4Uu7Nui+bhjSSGp5Lsvga9YqXZgMkyBNvQsEoZRkrIqMFQWXYrZCjQYxktleajIwvU8YNu1ZA8uZlHgIIxyEfcbiKDTTh0x81F4TtoE64BZ5hoflYNDTQsjW7CDVCpXIU/uwqzOpvu8Ho6BYTuw68PROLRJ1sEk1pgr0LnKLToP2hc5CkstcialChBJbHGw71RRopwxWT/UfD/4EmTCqj6DMgnpqTHIXBeD+wLE7j4NXciCES4LWrlmp2yE5vkszXAvQ8/xBNqzg/sEfYoGTLAvmgmko5K0wkkppaDRKInG6SKLwtR4fLeCLQ6mM6nGWuV+DnumEjwpeQiaddCM0epnT7MSflUglzYx61wSzfBZQGoa4q/2Gybg6Jux4k85CW5MDypsYtR3Qkc+G1zOSpxm0lRp5cuStcBCnnB6u5MxyIHJq6wctzCdkhixbmFZhGA5TIaHTjBJ0ieVyZJXB6ug2OWk3wSlsf0CwSGTLg/gbO7b/jPpeM1PyNyfDLu226E0kqw4trWw0NzIm5T4xYtzYjWqMZG8qIoC1Im6k4KY3HcgkoIl7CFMos0xS09mXs5RBPZseR61wSQNR3xi1ykgeVZFubCl5EZGUnmFcWobSLHjx7xucOW9iL2rm2yYiDd9EYyzb3Jlk6MkXyo8Zn4ByfTHTBVFOaiwkDV4KJJtkflWaObF9XL/AJEvXqjHRRUdHhLtezglisosZl2IgFtjUhtJE22bw0zmWR4GssT2KQ2l3K2BIOZk0V13wELT5KEpZom3BPHkyDNEILKuHQBHfoNhUYo1QcMWmIuO/fMGiHjFZSTCqipl5dh1L+Rc+UbcqwThyKPaSNQ4eHiQygMqPFm91EXx1LjB0hDsmh/yX40x7qMIt6+hFtbUPoVM7pSHPLtzhyvUh0xX9bIk4tRgrnlL1YWqD7NSdZQhgD+2CNe3gvWuGOaVDyKiGteXsUr+hbllVsZDcyG3NyJPKbNi9TMT4Q6gorUe2JZGXRecEIbSRJl08NEphka4qjyqjY1SwThkN/1BpsTusZi5R4EkO5cTlwkJmdTn+TqPO6CKmyMKa3M/vsXElGlUVXJEOKu/hE2lajFFK6RJjSN3eEdyTkhXzc4zv5URt6nFdmmobLIVUO4vvoXj+tcIBCV0G2/cTrTqyRcTSVjPcnQ43R4x6uqJx5VYuo3nB8jUMndYabOjIxxXDlCrStV0Rlhdysu3E8I4CGVocjp/ykTasWuLcXaLdFquMHdXcIWuQ1pBVK8pMkGu8NMplka5sb7wbIoxq7Ooaxzc4RjmzfqjClGUerEtCiHrS05ICqwiCb2irupsiXbN6HO+CcOS+1ljp1MM3UY3/lFPWqxdQu7h5GZtBbhRQWWmeFolsK39zNOg225bn+XXo4Y3W3RYYvRlE1HO29Bt/EL0Rqio9bI2JRiqW3uDSNnhC+bKRzox2apsgLQIrOhkSJaZsNXHoTNhwMqxkLkpIdfR4zpmOWce16hqHholMMjy4vc9xmseyK243KLYspOiMrzMvIloi/8ANL3IsAL5LuIKkxJJUUC3MJvUvMWoe6V2QK5ox2apCGScan3FGZYRNfNleK7vT6LD+Q0lBrmlCnJpDGurLBClmoeMuvSRFnVF5EtWZ3iCSDVS1G0lWkjXbRDNvkXm4/nbSXC10pnd9xdKnwZQnUoa2RYEl2GsMXJMMNy3hBJm4G1tqIrOHoKjV1kOYzlv6E4clXaPU2Tsx23RVkjat4QTk5JBNICZoRtmkGrKzk4iBskSdRPKEtykM32LaKN67/8AAWks09i6OO5fj1CukxVCnyNZUUQoyLxRY1xsqsQ04DH4kND6v6llkNE5y3RCS3ahmyAdQ7gZPXcmFBKBBTQglfkWU3KLBdh9LuX/AIOm1ZwWGa0Y5SPdFqp0Y0kqk0NW1yvAyvhEhcF+gmv/ACKjeVoLEkItRDCJItEFb+5mgwbNVt/+HXs4ZSiOZKmP9KfBhKUNNuXwS0X/AMET/9oADAMBAAIAAwAAABAAAAAAAAAAAAAAAAAAAAAAAAAAAAAAAAAAAAAAAAAAAAAAAAAAAAAAAAAAAAAAAAAAAAAAAAAAAAAAAAAAAAAAAAAAAAAAAAAAAAAAAAAAAAAAAAAAAAAAAAAAAAAAAAAAAAAAAAAAAAAAAAAAAAAAAAAAAAAAAAAAAAAAAAAAAAAAAAAAAAAAAAAAAAAAAAAAAAAAAAAAAAAAAAAAAAAAAAAAAAAAAAAAAAAAAAAAAAAAAAAAAAAAAAAAAAAAAAAAAAAAAAAAAAAAAAAAAAAAAAAAAAAAAAAAAAAAAAAAAAAAAAAAAAAAAAAAAAAAAAAAAAAAAAAAAAAAAAAAAAAAAAAAAAAAAAAAAAAAAAAAAAAAAAAAAAAAAAAAAAAAAAAAAAAAAAAAAAAAAAAAAAAAAAAAAAAAAAAAAAAAAAAAAAAAAAAAAAAAAAAAAAAAAAAAAAAAAAAAAAAAAAAAAAAAAAAAAAAAAAAAAAAAAAAAAAAAAAAAAAAAAAAAAAAAAAAAAAAAAAAAAAAAAAAAAAAAAAAAAAAAAAAAAAAAAAAAAAAAAAAAAAAAAAAAAAAAAAAAAAAAAAAAAAAAAAAAAAAAAAAAAAAAAAAAAAAAAAAAAAAAAAAAAAAAAAAAAAAAAAAAAAAAAAAAAAAAAAAAAAAAAAAAAAAAAAAAAAAAAAAAAAAAAAAAAAAAAAAAAAAAAAAAAAAAAAAAAAAAAAAAAAAAAAAAAAAAAAAAAAAAAAAAAAAAAAAAAAAAAAAAAAAAAAAAAAAAAAAAAAAAAAAAAAAAAAAAAAAAAAAAAAAAAAAAAAAAAAAAAAAAAAAAAAAAAAAAAAAAAAAAAAAAAAAAAAAAAAAAAAAAAAAAAAAAAAAAAAAAAAAAAAAAAAAAAAAAAAAAAAAAAAAAAAAAAAAAAAAAAAAAAAAAAAAAAAAAAAAAAAAAAAAAAAAAAAAAAAAAAAAAAAAAAAAAAAAAAAAAAAAAAAAAAAAAAAAAAAAAAAAAAAAAAAAAAAAAAAAAAAAAAAAAAAAAAAAAAAAAAAAAAAAAAAAAAAAAAAAAAAAAAAAAAAAAAAAAAAAAAAAAAAAAAAAAAAAAAAAAAAAAAAAAAAAAAAAAAAAAAAAAAAAAAAAAAAAAAAAAAAAAAAAAAAAAAAAAAAAAAAAAAAAAAAAAAAAAAAAAAAAAAAAAAAAAAAAAAAAAAAAAAAAAAAAAAAAAAAAAAAAAAAAAAAAAAAAAAAAAAAAAAAAAAAAAAAAAAAAAAAAAAAAAAAAAAAAAAAAAAAAAAAAAAAAAAAAAAAAAAAAAAAAAAAAAAAAAAAAAAAAAAAAAAAAAAAAAAAAAAAAAAAAAAAAAAAAAAAAAAAAAAAAAAAAARX8a74+O9f0GVor7jwShQrRDzAgUcAAAASPRxwjQIgCwTD6JoyA+deud8+5bMMAAAAAAAAAAAAAAAAAAAQPKCCGFFEAEAAAAAAA0cgAAAAAb0gAwBM8AAAAAA4EkAAAAAAAAFCGGCDAJEMAAAAAAAAAAAAAAAAAADKMEgFHu/H1WG8posnEgDPERzXxXzDHiDH7zlxTCWKDAE1HQ+33WufO80AwW0AAAAAAAAAAAAAAAAAAAABTDGEAAAAAAEEqcIggQj0CW9J5QQkA24OADmpchEIQAUgWkA0AAAAABDEZSMAAAAAAAAAAAAAAAAAAAAADLxIu3ctkmHAHAAg9rLE4x2OcMQ4CNYFRYTFzknftrEA6BHDFtv8flk4kgAAAAAAAAAAAAAAAAAAAAAAABKYUkY0iWs1/onoam8vJJAYgikACswBglUjAAM/yscv8A5d1VlADPFTYgAAAAAAAAAAAAAAAAAAAAAAAAAAFCoDCkRBBZd97P8YQxoDBND8tAxCLUq0oLFj18/m+xlddJDLyzCEgAAAAAAAAAAAAAAAAAAAAAAAAAAAABpogeDgC5ZQv4YIk7e/eG/TQ4hsDQNU0lS96cxUg8HsFBFKRbJhAAAAAAAAAAAAAAAAAAAAAAAAAAAAAAQShQ06xeKnKcQHb/AIUKTUSNaE1Q5Uo5wDHs0KusxSKHtUCk4AAAAAAAAAAAAAAAAAAAAAAAAAAAAAAAAAAAAAMAJzAWUQWUd0mbxkgYb1EwCxRArm6kCUGpXSIUgAAAAAAAAAAAAAAAAAAAAAAAAAAAAAAAAAAAAAAAAAAAAAEcxBCheEiKzl7xJU+xZDoQwkbVqAYxIAAAAAAAAAAAAAAAAAAAAAAAAAAAAAAAAAAAAAAAAAAAAAAAAAANKLTySr4MgPQYtz8sgAAixAKxnJa4wAAAAAAAAAAAAAAAAAAAAAAAAAAAAAAAAAAAAAAAAAAAAAAAAAAAAEZNeqC4laUKpkfAgM0GgtIWo4AAAAAAAAAAAAAAAAAAAAAAAAAAAAAAAAAAAAAAAAAAAAAAAAAAAAAAAAAAAcG4UbgnIQI6ztjTIkwAAAAAAAAAAAAAAAAAAAAAAAAAAAAAAAAAAAAAAAAAAAAAAAAAAAAAAAAAAAAAAAAEA27oQAAEbWcgAAAAAAAAAAAAAAAAAAAAAAAAAAAAAAAAAAAAAAAAAAAAAAAAAAAAAAAAAAAAAAAAAAAAAAAAAAAAAAAAAAAAAAAAAAAAAAAAAAAAAAAAAAAAAAAAAAAAAAAAAAAAAAAAAAAAAAAAAAAAAAAAAAAAAAAAAAAAAAAAAAAAAAAAAAAAAAAAAAAAAAAAAAAAAAAAAAAAAAAAAAAAAAAAAAAAAAAAAAAAAAAAAAAAAAAAAAAAAAAAAAAAAAAAAAAAAAAAAAAAAAAAAAAAAAAAAAAAAAAAAAAAAAAAAAAAAAAAAAAAAAAAAAAAAAAAAAAAAAAAAAAAAAAAAAAAAAAAAAAAAAAAAAAAAAAAAAAAAAAAAAAAAAAAAAAAAAAAAAAAAAAAAAAAAAAAAAAAAAAAAAAAAAAAAAAAAAAAAAAAAAAAAAAAAAAAAAAAAAAAAAAAAAAAAAAAAAAAAAAAAAAAAAAAAAAAAAAAAAAAAAAAAAAAAAAAAAAAAAAAAAAAAAAAAAAAAAAAAAAAAAAAAAAAAAAAAAAAAAAAAAAAAAAAAAAAAAAAAAAAAAAAAAAAAAAAAAAAAAAAAAAAAAAAAAAAAAAAAAAAAAAAAAAAAAAAAAAAAAAAAAAAAAAAAAAAAAAAAAAAAAAAAAAAAAAAAAAAAAAAAAAAAAAAAAAAAAAAAAAAAAAAAAAAAAAAAAAAAAAAAAAAAAAAAAAAAAAAAAAAAAAAAAAAAAAAAAAAAAAAAAAAAAAAAAAAAAAAAAAAAAAAAAAAAAAAAAAAAAAAAAAAAAAAAAAAAAAAAAAAAAAAAAAAAAAAAAAAAAAAAAAAAAAAAAAAAAAAAAAAAAAAAAAAAAAAAAAAAAAAAAAAAAAAAAAAAAAAAAAAAAAAAAAAAAAAAAAAAAAAAAAAAAAAAAAAAAAAAAAAAAAAAAAAAAAAAAAAAAAAAAAAAAAAAAAAAAAAAAAAAAAAAAAAAAAAAAAAAAAAAAAAAAAAAAAAAAAAAAAAAAAAAAAAAAAAAAAAAAAAAAAAAAAAAAAAAAAAAAAAAAAAAAAAAAAAAAAAAAAAAAAAAAAAAAAAAP/EACYRAQEBAAEFAAICAgMBAAAAAAEAETEQIUFRYSBAUHEwgWCRoKH/2gAIAQMBAT8Q/wDK0qat/a/tf2se7Pu+19r631vtfa+l97631/CjOr3oPlfKOHI/yHJw/CDerzqL7X1vvfa+l9r731vtfaz7s+7Hu/tf2te5H3/TJO0+1v3a92vdq1tbbf8ADjavlfK+V8r5XygO4R73m+V8r5XylRpLsC+V8r5XyvlfK1Y2f4dtttbVr3a932vNXEfqYOpTvUmvfUGfPQPtZ7dHwhXMm+dAzP63w6D+EdJuN4umL3JDm+vSEckYTiQ5u/nQ7GyBslCyB0Ner+vQe+ONC+NvQ+n4KDM17/AXvDzLXf1TPeQRrb+eWr5SZnF875x1QbB6MJnq7Tbu16sPpnopUwtoegCbsecdhd21BgqTgelhE8yMLzHANxWwOoM/KTey38WvVj+e2sUwsAObkP1wIUaMk4z6dG+nVbPia9dD730tdjslrH1FdjXFrd0J7BLXvnN4GEyHaF0WFpNYvQc3LSHMNRBTiTsjtPFxq0MyayEVjIDWQG20SwmPfi0ZPv1T7L2Taa+LZi828O4GANmWv7KLbFGWofxHrvY2HMz82jxYcQgLwQXLGfZjzch82gRhA5kAxI7QZ93cI4FOF0YZYlnueYYM8wxyQacniekmodbljErzFAbjN+69p0hwtOZvyWK24nyzKPiS5LGdYRYP3OK8WjkmVfN9ruw/iH5bPlsODZ8RBe3e5G+xPMhhAyxlj2YnA8RBGFHSe4bX2uNPERM6ZpjUE7m0doNCEGRg9wBw5gRIUA8WEXlI9drLu7zLDG/C0hPiS5LRA+YPzM4krhzMtf3f9ee4GD5Z4upDgyX5bVuALyF4ae3hCf6iF0J7N06BDInkQCNZDl8OgwYxjimHYpyOZDB8pXIg5DoQcEdAb7RQmLiGRF5fcpD47r/XC7nexOYLzBx5pm4y9zIsi67+/uQPDC5hOToD4m8QuSQwt7Z3YPpyYSzD4mMEtC3vKWusO76S1W7n7HNwdKaGXJG7D0jwxx3cPR377R3ruZ223ZwhQ1yQidcBH4hJle8bwp9SX5lPL/DCOIPzHuQ8N0t30IYL8S67HNfiXXZtPd4awh5XIF2lcHReUd6fD3DZ07jHZtkTzaBu6u92QGEUc91eZMctNXmDhE+CHikuCW4l+X+QxF2LA9Ozga5PM9LILZ5O1WeIkGO2WyIE6MriBRnGFo5YH3ZVwJdnEjlj/ri7WaNu99Sx2XPku30/lO2MXbuqTqY0+J67d5W/+/TtId5BigRgIM2vBdpVjsOXuyGwc+TzaBd5RPENp5chwnev8sI4gc3ZEvIWLG9xJ5npHQW2bapDPsnWljsx1rx07F9dDjNuhHo28V6V5T+cFOIcLyT3G23djOs+n3DAu9GewCxZosSPmA5WHCXxPIf+BbkPzelIERa/jXlyRxKef/Bn/8QAIxEAAwACAwACAgMBAAAAAAAAAAERECExQVEgQDBQYXGgYP/aAAgBAgEBPxD/ACtP4noooooooorKysrL8gNkZGbQnfk/BGRkE+AV4UVlZWUUUUUUUUV8fTv1FpkRDRCEJ+SlRUVFRUVGhSlRUVFQ3hUVFRUVFRV+SExMQg4vqk7EhBGSivCvwrw2QRir7I/T+2SCKkERBEQREERBBERERERERERDQST+IR+m6QbworK8KyRhAwlPquha5/FSoseiCCCCBbeEkWIXhejiHYucJU6xNnDP4Ftj5OQxOEEEEDCiKi/hcQlRKfXTsorKNkEZH6f2wggg0maGU0TLcEkaORynJExYiHEiUcIVWiKhe40aNCocEiCMlelekEeFeFbEp9lqic1ioqIworwjJhqkTQjkLCjGh6QloRxvJ8jdw/cLvCbxwO6LnBwU7IivSM2V4QQVFGxKu/cdHZBBFipYVsjw0itkh0JCUN9CQ1vG0JQSEpibGtDwSgkJDW8LgSEpgk0X0iKNortEGiIiIGoJUSn3WqVrHbIIWG0jbgjfJEi9Ihvg/sj9Gn6JNjTW6JMaaKEmzdI/RUaa7Em0JNjTRH6bsK9I7CvR67Nk1RCjw3lCCTspYRv9DEMUbQ2xNCaGzYfiFpCdjQryN3JcHY8HycDhjaELlj4OHwL4Jb3hacGpsl4E5plQ2i+FZHjBP00IxorE7NtEh4Eh7ZGi7E0LkfBwEHuHA5mFgw3RNvBM9CGuxD0zbLEIv16UYW94W3cJ2PgTQhSN8CcwaMaCceFdok2NQSOHhcjGwnNHL/aMRooZDaFwPzHLwtvH8jamiQe9I0cHgxtZPTpUXZtmwlP20IKK0J7Lg2JoYsQnY1ROMfNxw8JxwbQoHWIQv3rTBVDoTQwlctU/gT0NhG8Ep/wcD8YT4OihIRf4M//EAC0QAQACAAQGAQQCAwEBAQAAAAEAESExQVEQYXGBkfGhscHR4SDwMFBgQHDA/9oACAEBAAE/EP8A8qrbZ8S2z4nOeJznhnrGDZJ2YJl502PIgv5E573wfLyYJl5cuy8+D/nwaAT8EF/FBPyQTX5IP+qD/gz1aG29k5F2ze4HiGF0+8PcQT9s9aw1/Cw1/EzfkNUxaVN0bvhw/VZ63AdXshrL2Iay+Ia3nlP54b7jdJn7NPYIF+fwgK13BaLCFqwhyLmBw/yBaBrEwuysxQFdt2nCC358do757tHTDLuyUyidIe8/pkdPwkdEeybPhR/VZseHE6eBFaQdEw6czo+ZNnws9ax9zK/3R0U7xLX7xPK8IakOk3bH9Onq0f1iI5l7JzHhEvyRGaH4IhEn+fPd4ln5cT/Jnv8AEc/KlGfkRD86I/kTf8DOc8TnPE5D4ltnx/qDGHKKUyQNQR0QPKKn8EB/FOU8TlPE5DxKbHiYcpfJOYeZynme2J65PUJ61Evwojn4E9MiOfhRPPxojnIhnBVwkPd8ISmlp8RLdCX5MQ/PiX5E9miOs+TNluY9uE7K+I6K9yOivZHS8GOl4cdCBgdEw6Mzo+Rjp+VntWDYU3q8pXZuNTqQKQNtGWIijp/jAo4jGRvGRC31iQcGrq57xh+9Zv8AkTdmNUwbpA1UGp4c9Qm/4UH/ACk93NwYaw9oaxwLmTN+Z+zQb8qe7z3GXQNr4g2h1g33Jfp9WXwEoLlALlITQ+XhQXLxJ6JNrwp69PQp6BPTJynmcw8y+SVsJRseJyHicp4nKeJ6aKfgiufjRZi3ZBYAsTg9SCHSUn+mYI6JFHsCQ8st1DKKzW/JF5lpFfyZ7FF/zovn5M3fLlmfnS3PyovmsP7KXavMuXwv/RL0EcTZtMTOwQausGbb/wCK8tXYInKh30CNI0a0g/0uM5jKcvNPbwD86AfmQH8qV/kwHLzp71AcvLgUlf5YFl5JTJi3MwMDWXVnQxZmKgef9PdJzGpLOxjdTU/0YLkXBMl6KCZP0cMt5MyOb109fPWz1s9bPWz1s9bPWz1s9bPWz1sBIWpsi7BYanrp62etnrZ6+etnrZ62euhfDAU1uE9bAZ0z109bPWz1s9bPWz1s9bPWz1s9bPWz10+nu0c4HfEsz6uIZj1UUZidv9ESgWjyxaPXaDVj/p1saHBuRiy2OZEANZ+p/gqVKdpTs+IZBOzDKP3QfJu+DfccyTvzJl3BF5h1MzQYVmPeCZj5mjHQgryOkGr2zAc32IBm/eoaqSar6yZvuzqe7+0NIOyaLs1NB25ftj9Y5S/RR1z0gOTdiJ8RbglpGF2p70ntSe9J78nvye1J70nvSe1J7UnvSe9J7knvSH70nvSe1J7UntSe1J70nvSe1J70nvSe1J7UntSe9J70nvSe9J70nvSe1J7UntSNCHQqTlg2GJzLsQyQdYNI9VD7tf4ms79ZrO5RHQrs/M0/Z/aaHszkR9JXkiFsn3mhDsjo+PE3OsfdgY6C+YnknRgckhHJO2Zt4BmaduZh2HE8y745wuqjmC7Mp2ZTs/xr+FQeDit7EACvDEQ50Xl/qTVUTFv0mKaDYmZF1QDaiBZp2ILN+4QPO0ha3rBm+7Lm+5GzOtTSh0qabtxXw7Ep5N0hHIXjAZP2iGTdyfcoRPyx9ylFMi7sVkfaJyDzi+n0MVrOhNGOjNfHRfVApoWkBmY7os4t3nsJbwo2P5fBfWfE8aBnsvFUFs6AxyJ6JAlmrCzWEpecq2od4Z1MO63oJVQUvBubSRpxgOpI2anKiPaG4s/gT5Gy6YR4nKEsXzygCVntqetQIPbIYnmOUBtvklGKbozXglQFJk03MuPvaFBS0mzAfGVjjMSpYtG7KpGYKo225xwa4fNn3v8ABaZM2F5gOR90MoXdApAFYBW8y2xVzTIl6s1S9SB5L1MDmkjzXtA807s+xaiVg9oPssReZdyIyfaCaHnDNd5wwb3J1Xch1J4mlTxPtwI5fswvkzpCuYecUyfiL5B2IX3d2RiGoMWaXPJpGP8AqQLkWI5QQUGhpicwLDVAXG5Or5QDJSkXhHOJ3RbNu8t1WXzZf/hJocMTqbRFxVibv8fwX1nwPGmgG1TBCnlig9TMTfWWkYnbIrQRQ5up4mtRsOZBZwRDySpeHdu8a9wPYJ8P6J/Xc5WTpURSzlFM+UrfFQdOIUkpZVYVBKUDMFTKlOZWeMVKbMYYhAoTJgtEVlkxUVlYdXSLGKwDFqDAPpRjAsAa0GTMQZl/XiMPRVXb3HvxEw56w3dFw5ZE/v8AMmB7Bk1D7z+hyZn9eHyWZep/xqIN1rflASBWwk76/wDitlu75mSLowyx90K5vYcPZAl1NpW2y8FIbYWWkRk61X/WOLbsY62KVsM1TMppzjn/AJq4d4ZRPQgmSd0zBd8yR+0yDupLmcsdEJ4RCNjzmtYzONReR6Fz9DI870Kgsz3PxAFInd4qjlcAmKQKbimZojX8Oi0C7itmCLMvCBayq0EwEFmHOWsErJ8MYxsUL8kUhoPd/U1nwfonwX3nz31mCiKvcukR68Ad+Gks7oLq9JiZOlJRZih6x2BdBhDB2o3GucGfcxy7S+2hJzhG0iq9TeJaQdob0TtgHEUA+GIcWsa1DG/Mz3451yZdBta9p/T5ks9ihHVecr0wgaTP68FNA1MLsXTb+IRAWGAOZC8n3IvJdQZ+xkWb60mGvFYtwKAHAcLd2WWtakZl2Un2FzMi75mAdXEs0dT/AMVPjCwwfeh88oqGKwNjb/XuA7wjtziCjzAx+ftoXXJluXlzJk75kHfRMk7yEzYdRiszqQnM+7+I7LdC5uJ0keb8IAxXRqZl3pIA6oXn+8Nn7GaPsljle1+kc6Ok5B0UaqdaJqDvKcj1cbShNsZWCIp5uZEChkmRvNA+yfcXL+zfNB2bAtzmAat57hPcZ7zH9xiltVXfjX8AVYwmUDyrH8wOtCGvNgtADGbaS5h1Wgme0yKizbaVLVmZLNYE1MxGBREWoAKLiqQtxccC76U1quhFtXjTGSxsWRTFOmHjvs1MQBNAXjtC0BbqYRwnV2bS/oLPxDgS1SzsxpChmFHdZZe/tRDMKbAbStooHyl+ycHRi5kSsVVQCF4w75SJcaQKKlptFtXgNMp/JnuM9xnvMLzc3wgwBbHGZCO6ZCe8cz+oRtpZMHejgBVuxB5g4C41A5nx+0Da6ToD0RiM+qP3DNh1kzvc/WGvOtZq/NCaRen78JHEsPSUfXri8n1DNxes68dSBzPd/EBknSA5W6GZp2kZnPbtMmHfE8/LgE3uCqiG6HRNXHpq/wBhtDTNP1mH3LUbgNjxEcgWIwlLFdUmt+8fdxROXdLG5PMmifQzSDoT8pTMjGbDuiufmZa5tzscMf5F6FwhgeMcSMCqLYpUagoNYNM+RNuLy8CoICtpWc+f+vAjIhQutU34nbmqZCGcOQFQrg5BPAaiFSt56ti0OIIG/C1KTLMehCFc7QqO7rR0HCyktg51BDpKSbYJpnBSNsOI8k4q6SonQjJ4VQByDOLnxI9uAk2IS0MrusmLcJfXFwAalmA/ELSAxapIoAFZmF9l4OIkG8I7YFAlKh2JwY0qha4RkA1JtMXQxdYr4tpmYgosgWF1KWK7E+E9qIUhvUMxCwsi+xEgpYg+WIhk/wAr4diCmTKci6Mycd0yMxkHkmoHUmufUsD+EgPqSSzkeSn2KhWS7kxm9W0wIlMiMhjNWgmUBBaHKX/sn7Z3VR8K4oxeUyHjF7MBOxSOjxx/wAuRfSL0t5KEYRH4AJ9w9wRA/HATIvYYE+rppS7AZhCIKV4YhQYTXR5xNsItBFaochLH3C2fP/XgLNiIKtgq8mUBbFjgZUio3owJZgrdLXhNYEqGK4BigoDomLwwmLhNd6VYS/7s30EYazE6HKA2G7SwZT4pRWgzI57RyQGy6YypxjVNHRnzPtPkPrx+SjNRcoUgBTlDNgABSDlP6TfhU7SPNi/471DOa8LNYrg1EgW7WlsJWE8Q0uISkRsTSKuhI4UuBIqKVXjBS0YCrnx31ny/Bg7kfZMckdGpvwn56ZiIWmomkwGj0GNz+4leIWElaMr5RDBWzzuYcjDXPoTMv6wmaS6sRjyijg4fXvqaB7iZEecYQXuiJmJ1/wAYKAtXQhGn4XlHQYnMCPX1sf8Aa2bDYkaQ0bTHWN0B9eAXgYvKKUjo5mP7T8BES+vp9CCQniqILidjDFJdbRyiiJcJH8jhE5J3ZgXQRmS9gTEezpDvIJgK1mxycqUfuQc1eVUJQnM5/aUibVWreYZrOB95kQ+f+vC6jAw6stKX6LlvCCYNupwt7dT5JV0FrW+ZfRC17K3OGk/v8uDsvNVSrQIV44XXt00279ZmtpsZ6lupowXHDE3Knz314/Py11VHTRFcGKGxFdeULoT+s34ITXqDG3LxLmrgp5Jh3QW6HLgKCwQJiE+hZELakqud8P6jefM/Xh8V9Z8/w+S+kRKiOPU1JQjHd7lz56ZifHTKIOKYEK5OKpUboGJNi9ANy/qPcmNeSfSKVBHnhPpnE+o60X0NkT5FRgs12J8IDcwhQTMNY1sG6AmjndnyGUxLwOjPyBtTJR3EyenS43gOriOQnWEQF34UzbxKsHLd2jA2t9D/AG9gFwT94GEDM1gax7FYYsOTd8QWmUgfYkRkut5km9Ijg+gTM/4T5GE8alcETGMsUoqXeSYInKRllp0IkAa9loXShlRRLjrauX9suhqW09pawbKbvM6SjRSgmDLLMIHS58/9YS5ssRqrkRz83UlDYFBzEzOF4ami8DrEj1tRHvBfGWDleRGaTcnpwY7JdxrBRBZByQicTiFBDLmGBrebNYoReHHR3IrMNsdyfOfrx+UljVNiJMMoSgzE+mT+k3l/ZrPQxjqDibctoJigKOUFz5ij44lGqRpiRfMAyZmhJGYf72M+Z+vD4qfJ8PkoXAmxN5QNXB2Z89DOL4hjUNB2kFAHQukXHiOWMZchpilZWdkOpTXCyYIqeY8wi+smbjVyulw/37WK1XczKTM/gT4XETI/1tEM45BmRD1QPwlIz5BcwqpBkZy0cnxMcD2RtWg6ASnZ0ebf/cZS6Eueh7RZNEFWRG+7NyIpCkzNv5E+DWKpoHWSMpyu+s0Ns8AlHDD0MWDV2AIizblXNjOSo1fWlwBWgVlQu3JIYIXQJYxjQXD40dvww4XuhCEwEbSfP/WGcrVVuBnXCv1/sExhZB+GEJvixD6gNhYcDCK3ZVGPDGagTHKjw5yLEavq8ADiWmOMyiDAiFlpG7xzeKNgdzCOcL21wTEYKRLjOLVaxiw5MYnnlhvE85IgQqS7GsaeHIPpVxmrVaurFBpBHmQYSFFFTWMjSUYhBYoAo4HeM+yMAkUpBYxibVWZiAAkN3IalklbbbIpgHoviWvDoUwFWshxJdvnnxESBE0TggNPlgTL2dscqDnaqYXuFlkzRfoLQylvllR6wF2q+kuqU1h5m1VErf8AkFyoBlDpFv7GFLo3mZLYwP8AdoTiYm5DQY9QYkU1XTqiq11Ccr4Cm3fPUS3yg2kCyLkRzAbelgdWjSiLsAN5XVA8tfMStWCq3fC+C5cNxR5mWj/bWWNGNVagahaYB4lyO3JItqtruwxR12Z9JbsE65rC+uhOIc4sqiXP9qiJjh6v4lLUuJKktr14ilHUI8pcoHWvEpcG3DvxFDg3l34CiWL0hJpJ4wlwb/hFCVJbU5xgSillzc4i1FLLm/EWpaoPS8VUA8+MtMUt6Qk4kf4whqUQu03I/uUXYypKLzjPlAgHAcJ4i275n1TJ2ZV2BzCVy11/iXrh2Efa9mOeY2rjzSJXHWN2zAesPluGrny6YdSW1ksl3t6GDK0dbIPEBy19IWoB1oQVOio2VzySBiHEKwQkXypgW5Ng/wB7YatTTqgx1p+6XAd2ii7rga3ciWWxXUnxPlmLlI02P8bkfcMJXdWhlNrmb3LY42wi8OQ/nHCkzXhkM2Ag5RmGk6xsQSsIF2Xd/UcpbkOi/BGxdxcdXSJUxmb6EqCopGKth3W/SJCbBwGW3fM5j5iJbz6/Epfxcv4JbdnMY1y7T3iJFWvVlt3zCHWwzby2AUD/AHpOYy1ZvmNZ1B9Jbu+ZShkDfKKNdIfvMDNgntSIYmQItSgNOk5jFxRDMaEv5Tc7S3djquOEGCtzZzHzLAKudpYFxCW3fMY0WsW+kd5hc7e5bd8y275io8DE3iWCr5Jbd8zmMBrByCWJc8ti9YLMFIwOsu/DQ0XKLcdxyYwYwxNX4hrLjDpbwAIbDDg9domZeNIOzLMTgitW3I2GH5kBFrqYkoezUpl4E9F8xodHWSv4ZxaugqUDzxi8TPY7B+vCjYYHYHNqMk5WTzMq5k5H/APW5uNMpBptimCmdjKAV6WTN51agjaA7Nw7PNc0yM/Nh8y2eWipT94K0wYo1cI8CxsjzLkPJ4xawbq534i3ell23jRKGPxEWbnwwz6opk2XTrhVIRSNMbxLSznxBvFTu1BRshDqQHR+Zk6rgcBFR88YnUlhpw6wnwnOdkVVwWug42kY0nQlONljoOFnmGN7Svc3hwyDnO3PBdLRY7ygC1H0Yy0DEW56Qb7BL6/0lfGFC8yMtY1jm5yv3Au7PhcbJczE4V7YHaXsMAefB1FJsFcS4XlxQfBMrPYHBRFbzP6EMO75kO8uJ+iIiKua4sZmksecODpbegglolPKU8SyTXkzGkWInlGxXfMTpOyOixNJ25l1/gAGtVUpUD7/ADKgKcENrvFok6/2nybgTGeRi5TLXm0Q/C9S/rL0QQD6w+ktwqbFEwDmauXAo0wRG091f/DvX02MAB5bg4FXN3KYVaS+EUlcQ2FywSrrgZ4OBFgkmQNMTalahZ8Q0s4FMZWYrU/OMACo+Qjhj02OkuIRf1EAkHQdG8XAq1dY4Bfo5eP6ARhnKaXjeukeeWMfBDwo+DuTNadYHvK3KEGRrGQKNEp4EACtWr5sVqua28NaxfmVe4B5eFS3B8yqGocFcUjYwsdWD1OF+GNA8iMtYGHQwh0FqD0eBCVLXGU13twt/sKnIb63Cl3QFSgxgiuJ0JKZz/tRVc0j24BaBXYgoGJNxRLBtbMOiFIsi+A6R67utom0qFgY9Tjl7ZnfWYb1i99YgI0mVaS9wlWOmXoKZmrbpDZjqMMAjC2ADU+O3ojQCzEiYXWS0PMpWh1H4lE8nFSjQM1dylF2FQe+lhLMwml0Pgzm6liC8uMavr8a25/8fiKLk1KUqGismABxge8JiTIq7Y3zLYAdm4BWO6sZgxsy6ZcUF5PxK3m2JyHSBjLCtZbsScvHgjrDjaEZeS10acCHgrEXoIqrg06CXE3ULtprBkQ63HOfNDIRCwf15wFQnHM8wF2lXIjwwwpDwlVtmE7YcObwlG1PjgQ80Us5aR1DF4IC4Nz1fcVRc1g4iUTnNJdBzuG4pAnGrnT4le3twxyqlvlcpRo+XviqOoJ1g/2hRhjzlAEdVmHJGbag6YA3gsiyQ1XCuDDYgxwVoPxx4IvSDM6PkNo4KOZF7KsSDCIKXXmR6gbWmETkGxv6zC4TK+UpNGriiHFAc6griDRW/EthHeqPmYHzhxZgRR0wERth3f8AmV7Q6EoTDNDcHgjn+aUAm0wPMItaLGPiRgNiuC1ea+ghq6yGw4k9iRLwUkH6xb4VSwPcm0x5axQUjUwlSDbz+YViqWOqOoY2hQ5Qei+Zo/OYS7ymzcVfW+XCrbBlW8b8cbccKnUlJGOLtnMkX0zha1uqL6xrg49DDeUlcUs+nHsv8p1iL44EQ7Vtp1D9R0tmqlErUG9xhiWIqiw6RYcxpHWV3EUdUc69KuXE/fpVLF9jiTq11XNEUMC3Q8CWitzmzKgK4E+IAGtSXRbpnHmgNVd8xcfL+KWIHaNfMVuaLf8A0KkOD4oS3B0XTgY2sBOyXyte2azXhXLAdxlqsKnrxBkEfUjprWXhglfgCAqpeIbE5/yVSqGNDj5jBTKmdjUCYG7FQzEW6yWzysVMdnKpZCagBWi4lNMqYgUYnRlASpDoysHI93hi1oxft8xxQ/ZlYGwD/evFPSoWmGcx42RTRcfE7YgEanO2iaH6xEwy4oDWG8PS86mXwXNcuHcr6y8ho/vwQA0mJMCcX4UZ8waeFIWv00vEx/S4klwMDc1gIaVxqs+G4IC5LCWrEq9WK1XN/wClJXpKebeBQFxl0M0tpEtMcQQuGqzqRY7d2nBMepsuRAf0uq5HG1yz90oavD/fgFAF3hEUYFPui424sbMB0HCF1cZiVrGlUqozDeB0IQWsVvSBncz+6U1mOkAAu61YSStxz3vAivQRoLjrOleqNBwRU86tiA6QzdAmm6LSQIGNS2bjol6zEbbhEFUoeGO+LsGVUtVLyZrwuSx/alHCvmuDAmZiRUHGg9EIOkpOfE8R4odVE8Bwak5EEELzBIlMZk7Jd/8ATErtHVA1vtLp8TkyIXL98kPEtnYw0xzMYDCiWTpdvQ44NZY31lhLOvXXgZ4QziGbmx8xFvC6y7HoQnGNw5GXGiGB7jLIOBk314m9RTlAVQ30U2i1A1D+AcxzfiaR0OsZlzmYuF7p2CYOqDijlO1cLqaW/eWG1XfTjYzgO9rKLKGvAUcM4SoVugjkqRHhbTSdhlZMVS8njUszw/rHDCQWU6yoepLfEruaWBKYbkj6l7uMsLbBWb0i3/09xG0juQgF2McbSlu2eIUYh1NPiYOOfOYXFKAxNRdDAypaZdWMAYD3pjZwFe/DBO/AGMuxjc9DjYg2Mpg3g/v88SI6QyxiFlwc5iZDdKQfchIvzs/EE6sC89pQCu1BDLixh9ULqFw5kpeXeQdoIVAyQJ7bVXNNohI8uDEMxEgEFLW6k64PDG+vAOEoMxoejxzd/bGXoVh/vwLGyEEG05CPxVTRK92oYsVnXj9ohnAsaN1viHoxpgkvTFaYPmXpLdb/AOtumzCV2HNSyBoLmYmBtlgsu4UNzGWZc5UBYnYPvHlrOYRylOseZQBs6/fiLdIuox3FqVeC6YyA2C16GvG2Rdru5feUu2WPVgAlIW1MsXmXWFuBry4ODYuC64ACrHEqJEbdem0vBwMHOMYYG7nxBhbhHJiaQNOjwFETMiAFtrXkiIJicMV68AykdpTRmMVKLcUSkCeq+ZigJtVrMG8B4lqMHMZXfdP2l+IOSRVWtu7/ANouJZpeHiUQfuNMqxNg1LELuNxQBbYjQAVDdvWXyocyPwEREprWWLpIdDjYIzF82WOwsdXiK4a1vImwBjYheteO8y8wRhaIuN58+Bg3PEDfSF/g5Oo7w6CEQ1JWitfvffjQp9Q0lStY6ZcbocaHRiF2lQGdx0UHJIZSuh94MihWqWbcC1L8aPNliCbu2W98dDR/3didyZUhLNcGVZ0RZKIfml5wPKmMC2goYWMsExq/tLAnYVDE0tb5Ed5zK6cFLKkKiPlQTVf6ykNji7Npdmx6XNiIkWr/AAQBgmIkMsE5uneUCgxPtSkQpG2kVvXrpwdgiWCCDtB9z7wtsUFyrUNq1DRD2AollGtWMZz2kql5yA4eZcG5HFjBv9Fw/wDgFyhNaqpThlocfMrR3cwQM8rHGVw7suFxuVCL9L60ygdaJWMsPLSBjeYc94tGPcWX/E8cv5OOVYkJ5Ar70BwrrDaUuYULzJbXbC5TtlutmbLBTMlGLNiVZ3OLA3dkSxRXd5ihM7r/APg6FotyUYpc2Vi9y2QoxbUpi4ZaJcbVaSrgMwPMQ2gw2iP82AFZmg2mL07iigQsBlKYVoFQJuNrtl2KdAgSFrTB8y6Mbr/8Ntu43l9yyK51yNzlzo5H+Lm8kl3FuJeCzkRVxW3/APBEf//Z;" vertex="1" parent="1">
          <mxGeometry y="340" width="177.05" height="100" as="geometry" />
        </mxCell>
      </root>
    </mxGraphModel>
  </diagram>
</mxfile>
